<?xml version="1.0" standalone="no"?>
<!DOCTYPE svg PUBLIC "-//W3C//DTD SVG 20010904//EN"
 "http://www.w3.org/TR/2001/REC-SVG-20010904/DTD/svg10.dtd">
<svg version="1.0" xmlns="http://www.w3.org/2000/svg"
 width="124.000000pt" height="124.000000pt" viewBox="0 0 124.000000 124.000000"
 preserveAspectRatio="xMidYMid meet">
<metadata>
Created by potrace 1.14, written by Peter Selinger 2001-2017
</metadata>
<g transform="translate(0.000000,124.000000) scale(0.100000,-0.100000)"
fill="#000000" stroke="none">
<path d="M120 1182 c-26 -9 -38 -28 -55 -86 -43 -147 -11 -266 88 -334 l33
-22 -22 -68 -23 -67 -65 -3 -66 -3 0 -69 c0 -64 2 -69 22 -72 13 -2 23 -7 23
-13 0 -19 17 -35 33 -33 11 2 18 -5 20 -19 2 -16 10 -23 26 -23 18 0 23 -5 22
-22 -1 -18 5 -23 31 -25 24 -2 44 -15 75 -50 110 -120 261 -224 344 -236 70
-10 223 81 346 206 68 69 83 79 113 79 33 0 40 6 36 36 -1 7 9 12 24 12 20 0
25 5 25 25 0 14 3 24 8 24 30 -5 44 2 39 21 -4 16 0 20 19 20 23 0 24 3 24 70
l0 70 -70 0 c-68 0 -70 1 -75 28 -4 15 -15 47 -26 71 l-20 44 42 41 c57 56 82
115 81 193 -1 68 -23 156 -48 188 -30 40 -172 10 -261 -55 -43 -32 -93 -116
-93 -157 0 -20 -4 -22 -30 -16 -45 8 -166 8 -231 0 l-57 -8 -6 36 c-9 44 -40
103 -70 128 -68 60 -205 107 -256 89z m105 -61 c67 -17 130 -64 154 -113 23
-48 27 -107 10 -140 -10 -18 -9 -20 5 -15 125 48 312 53 422 10 11 -4 13 0 6
18 -21 56 14 150 70 192 41 31 141 68 171 64 32 -5 59 -67 63 -144 1 -36 -2
-77 -7 -91 -21 -56 -97 -122 -139 -122 -24 0 -26 -13 -3 -31 19 -17 63 -107
63 -131 0 -17 -16 -18 -199 -18 -184 0 -199 1 -196 18 2 9 4 22 4 28 1 6 11
11 24 10 29 -2 124 22 159 40 15 8 35 26 44 40 25 37 7 66 -63 100 -54 27 -66
29 -183 29 -134 0 -201 -16 -247 -58 -58 -52 6 -126 124 -142 87 -13 93 -16
93 -41 l0 -24 -205 0 -204 0 14 47 c8 26 28 67 45 91 34 48 36 54 15 46 -19
-8 -78 12 -102 34 -10 9 -30 33 -43 52 -54 77 -17 285 48 266 9 -3 35 -9 57
-15z m432 -306 c-5 -32 -4 -35 19 -35 13 0 24 -2 24 -5 0 -9 -100 -105 -101
-97 0 4 -2 21 -2 37 -1 19 -8 31 -17 31 -8 1 -19 2 -24 3 -9 1 92 101 102 101
2 0 2 -16 -1 -35z m-505 -318 c10 -16 -2 -37 -21 -37 -24 0 -30 8 -24 29 5 19
34 24 45 8z m96 -14 c3 -17 10 -23 28 -23 14 0 22 -4 19 -10 -8 -14 7 -35 25
-35 8 0 16 -10 18 -22 3 -19 -1 -23 -22 -23 -21 0 -25 4 -23 23 1 16 -3 22
-18 22 -13 0 -21 8 -23 23 -2 16 -10 22 -27 22 -17 0 -25 -6 -27 -22 -2 -15
-10 -23 -23 -23 -29 0 -27 39 3 43 15 2 22 10 22 26 0 32 44 31 48 -1z m362
-227 c23 -23 35 16 36 122 2 132 2 132 14 132 6 0 10 -11 10 -25 0 -20 5 -25
24 -25 18 0 25 -6 28 -22 2 -15 10 -23 23 -23 13 0 21 -8 23 -22 2 -13 12 -23
25 -25 12 -2 21 -9 19 -17 -5 -22 19 -31 76 -29 29 0 54 -1 56 -3 11 -11 -117
-127 -183 -167 -33 -20 -34 -20 -65 -1 -17 10 -44 19 -61 19 -41 0 -105 -19
-105 -30 0 -21 -30 -8 -91 37 -53 39 -159 136 -159 145 0 2 36 2 80 1 44 -1
79 1 79 5 -5 30 3 42 27 42 14 0 23 4 20 9 -11 18 6 42 25 36 15 -5 19 -1 19
19 0 20 6 25 28 28 15 2 28 10 28 18 5 50 9 19 11 -90 2 -68 8 -129 13 -134z
m205 236 c7 -19 -3 -32 -26 -32 -13 0 -19 7 -19 24 0 18 5 24 20 23 11 -1 22
-7 25 -15z m95 -8 c0 -19 5 -24 24 -24 18 0 25 -6 28 -22 2 -15 10 -23 23 -23
29 0 27 -39 -2 -43 -16 -2 -22 3 -25 20 -4 33 -48 35 -48 2 0 -19 -5 -24 -25
-24 -18 0 -25 5 -25 20 0 11 5 21 10 21 6 1 16 2 23 3 6 0 13 11 15 24 3 18
-1 22 -22 22 -19 0 -26 -5 -26 -19 0 -39 -40 -35 -46 4 -1 10 6 15 22 15 13 0
25 5 25 10 2 10 6 28 8 33 0 1 10 3 21 4 15 1 20 -4 20 -23z m-662 -87 c-4
-29 -48 -37 -48 -9 0 23 4 27 30 29 16 1 21 -3 18 -20z"/>
<path d="M222 1014 c-13 -23 5 -94 30 -121 26 -27 64 -30 76 -5 14 28 -5 79
-41 105 -49 37 -55 39 -65 21z"/>
<path d="M906 988 c-29 -26 -39 -43 -43 -75 -5 -39 -4 -42 21 -49 46 -11 93
48 92 116 -1 47 -22 49 -70 8z"/>
</g>
</svg>
