<svg width="154" height="36" viewBox="0 0 154 36" fill="none" xmlns="http://www.w3.org/2000/svg">
<path fill-rule="evenodd" clip-rule="evenodd" d="M48.4338 11.3403C47.6528 10.5606 46.7136 9.97182 45.6352 9.56717C44.5569 9.15962 43.383 8.96457 42.1271 8.96457C41.3144 8.96457 40.5302 9.07767 39.7798 9.30927C39.0476 9.53526 38.3611 9.85308 37.7235 10.2629L37.7204 10.265L37.7173 10.267C37.0927 10.6743 36.5278 11.1582 36.0237 11.7163C35.6714 12.1065 35.3544 12.5232 35.0733 12.9659C35.0295 12.8068 34.9785 12.6508 34.9201 12.4983C34.6857 11.8661 34.3491 11.2978 33.9072 10.8044C33.4872 10.3269 32.9956 9.92864 32.438 9.61053C31.9076 9.30019 31.3401 9.0515 30.7385 8.86292C30.1445 8.67675 29.5281 8.54507 28.8906 8.46642C28.2799 8.39014 27.6719 8.35178 27.0667 8.35178C26.5471 8.35178 26.0147 8.38145 25.4698 8.43985C24.9247 8.49046 24.3771 8.57 23.827 8.67811C23.2808 8.7792 22.7425 8.90953 22.2124 9.06909C21.6834 9.22054 21.1788 9.39425 20.6995 9.59108L20 9.87838L20.0258 26.5132L20.6544 26.8219C21.1617 27.0711 21.6961 27.2783 22.2563 27.4446L22.2641 27.4469L22.2719 27.4491C22.8144 27.6017 23.365 27.7245 23.9237 27.8176C24.4779 27.91 25.0328 27.9732 25.5884 28.0071C26.1376 28.0479 26.6697 28.0686 27.1845 28.0686C27.7088 28.0686 28.2655 28.0478 28.8534 28.007C29.4782 27.9641 30.0984 27.8785 30.7139 27.7503C31.3397 27.6199 31.9431 27.4409 32.5232 27.2125L32.5273 27.2108L32.5313 27.2092C33.1545 26.9581 33.7195 26.6304 34.2169 26.2209C34.7392 25.7907 35.1547 25.267 35.4595 24.6598C35.6101 24.367 35.7228 24.058 35.8017 23.7362C35.9046 23.8545 36.0108 23.9703 36.1202 24.0835L36.127 24.0905L36.1339 24.0974C36.6567 24.6202 37.2384 25.071 37.877 25.4487L37.8821 25.4518L37.8872 25.4547C38.5275 25.8245 39.2107 26.1117 39.934 26.3171L39.9374 26.318C40.6861 26.528 41.4645 26.6309 42.2685 26.6309C43.0969 26.6309 43.8942 26.5239 44.6554 26.3038L44.6614 26.302L44.6673 26.3002C45.4102 26.0765 46.1031 25.7652 46.7418 25.3642C47.3847 24.9654 47.9621 24.4881 48.4712 23.9336C48.8006 23.5754 49.0971 23.1941 49.3604 22.7904L49.1002 27.7985L56.5209 26.9801L54.7457 31.9992L56.6898 32.9696L62.3088 26.1593L62.3662 27.5607L69.5033 27.1886L69.8359 18.6166L69.8618 17.9556L69.9271 16.265L73.4548 16.123L73.6248 8.91531L59.0045 8.94214L59.0781 8.39124L50.2495 5.6748L49.855 13.2684C49.4803 12.5463 49.0073 11.9013 48.4338 11.3403ZM57.6189 19.3343L62.0238 19.2002L61.9187 16.6266L58.3288 16.8193L58.417 13.3495L57.6189 19.3343ZM43.2781 17.2933L43.2735 17.2774C43.2152 17.0783 43.1345 16.9246 43.0396 16.802L43.0343 16.7952L43.0291 16.7883C42.9423 16.6725 42.8357 16.5806 42.6974 16.5076L42.6807 16.4987L42.6643 16.4894C42.5823 16.4426 42.462 16.4021 42.2685 16.4021C42.0366 16.4021 41.8709 16.4435 41.7488 16.4996C41.5966 16.5695 41.4706 16.6624 41.3622 16.7827C41.2658 16.8904 41.1811 17.0292 41.116 17.2152L41.1145 17.2195L41.113 17.2237C41.0495 17.4007 41.0142 17.5972 41.0142 17.8213C41.0142 18.0425 41.0457 18.2684 41.1123 18.5018C41.1736 18.7162 41.2618 18.8987 41.3738 19.0573C41.4722 19.1968 41.5867 19.303 41.7219 19.3853C41.811 19.436 41.9352 19.4762 42.1271 19.4762C42.3468 19.4762 42.503 19.4355 42.6192 19.38C42.781 19.2983 42.9046 19.1992 43.0028 19.0838C43.1164 18.9423 43.2087 18.7763 43.2767 18.5769C43.3461 18.3738 43.3813 18.163 43.3813 17.9392C43.3813 17.7168 43.348 17.5085 43.2833 17.3091L43.2781 17.2933ZM34.8207 22.4644C34.8207 23.1164 34.699 23.6781 34.4554 24.1495C34.2197 24.6209 33.9015 25.0216 33.5009 25.3515C33.1002 25.6815 32.6367 25.9525 32.1103 26.1646C31.5918 26.3689 31.0497 26.53 30.4841 26.6478C29.9184 26.7657 29.3489 26.8442 28.7754 26.8835C28.2097 26.9228 27.6794 26.9424 27.1844 26.9424C26.6974 26.9424 26.1907 26.9228 25.6643 26.8835C25.1458 26.8521 24.6273 26.7931 24.1088 26.7067C23.5902 26.6203 23.0796 26.5064 22.5768 26.365C22.074 26.2157 21.5987 26.0311 21.1509 25.8111L21.1273 10.6329C21.5672 10.4522 22.0347 10.2911 22.5296 10.1497C23.0246 10.0005 23.5274 9.87868 24.038 9.78442C24.5565 9.68227 25.0711 9.60764 25.5818 9.56049C26.0924 9.50553 26.5874 9.47801 27.0666 9.47801C27.6244 9.47801 28.1861 9.51339 28.7518 9.58407C29.3253 9.65479 29.8752 9.77263 30.4016 9.93762C30.9279 10.1026 31.419 10.3186 31.8746 10.5857C32.3303 10.845 32.727 11.1671 33.0648 11.5521C33.4105 11.937 33.6776 12.3848 33.8662 12.8955C34.0626 13.4061 34.1608 13.9954 34.1608 14.6631C34.1608 15.1031 34.0979 15.5155 33.9723 15.9005C33.8465 16.2855 33.6659 16.6311 33.4302 16.9375C33.1945 17.2439 32.9077 17.5071 32.5699 17.7271C32.2321 17.9392 31.8511 18.0963 31.4268 18.1984C31.9375 18.332 32.401 18.5284 32.8174 18.7876C33.2416 19.0469 33.5991 19.3611 33.8897 19.7304C34.1883 20.0996 34.4161 20.516 34.5732 20.9795C34.7382 21.443 34.8207 21.938 34.8207 22.4644ZM49.7366 17.8714C49.7386 17.7921 49.7397 17.7126 49.7397 17.6329C49.7397 16.4858 49.5551 15.4488 49.1858 14.5218C48.8244 13.5869 48.3098 12.7934 47.6421 12.1414C46.9822 11.4814 46.1808 10.9747 45.238 10.6212C44.3032 10.2676 43.2661 10.0909 42.127 10.0909C41.4199 10.0909 40.7482 10.1891 40.1119 10.3855C39.4755 10.5819 38.8824 10.8568 38.3324 11.2104C37.7904 11.5639 37.2993 11.9842 36.8594 12.4713C36.4194 12.9584 36.0424 13.4926 35.7281 14.074C35.4217 14.6553 35.186 15.276 35.021 15.9359C34.856 16.588 34.7736 17.2557 34.7736 17.9392C34.7736 18.6385 34.86 19.3102 35.0328 19.9544C35.2135 20.5986 35.461 21.2035 35.7752 21.7691C36.0973 22.3269 36.4823 22.8376 36.9301 23.3011C37.3858 23.7568 37.8925 24.1496 38.4503 24.4796C39.0081 24.8017 39.6052 25.0531 40.2415 25.2338C40.8857 25.4144 41.5613 25.5048 42.2684 25.5048C42.999 25.5048 43.6904 25.4105 44.3425 25.222C44.9945 25.0256 45.5955 24.7545 46.1455 24.4088C46.7032 24.0632 47.2021 23.6507 47.6421 23.1715C48.0899 22.6844 48.467 22.1502 48.7734 21.5688C49.0876 20.9874 49.3272 20.3668 49.4922 19.7069C49.6024 19.2608 49.6758 18.8042 49.7124 18.3371C49.7245 18.183 49.7326 18.0278 49.7366 17.8714ZM44.3542 16.9611C44.4564 17.2754 44.5074 17.6014 44.5074 17.9392C44.5074 18.2849 44.4524 18.6188 44.3425 18.9409C44.2325 19.263 44.0754 19.5498 43.8711 19.8012C43.6668 20.0447 43.4154 20.2411 43.1169 20.3904C42.8262 20.5318 42.4962 20.6025 42.127 20.6025C41.7577 20.6025 41.4317 20.52 41.1489 20.355C40.8739 20.1901 40.6422 19.974 40.4536 19.7069C40.2651 19.4398 40.1237 19.1413 40.0294 18.8113C39.9351 18.4813 39.888 18.1514 39.888 17.8214C39.888 17.4757 39.9429 17.1497 40.0529 16.8433C40.1629 16.529 40.3201 16.258 40.5243 16.0302C40.7364 15.7945 40.9878 15.6099 41.2785 15.4763C41.5692 15.3428 41.8992 15.276 42.2684 15.276C42.6298 15.276 42.948 15.3545 43.2229 15.5117C43.5058 15.6609 43.7414 15.8613 43.93 16.1127C44.1186 16.3562 44.26 16.639 44.3542 16.9611ZM50.2936 26.5339L58.1809 25.664L56.1394 31.4362L56.3912 31.5619L65.7546 20.2134L56.3272 20.5003L57.8355 9.18738L51.2992 7.17617L50.2936 26.5339ZM72.4716 10.0436L72.3538 15.0402L68.8423 15.1816L68.4181 26.1175L63.4448 26.3767L63.3753 24.6772L67.9436 19.1407L63.1546 19.2864L62.9973 15.4409L59.4854 15.6294L59.6269 10.0672L72.4716 10.0436Z" fill="#B4B7C9"/>
<path d="M34.8207 22.4644C34.8207 23.1164 34.699 23.6782 34.4554 24.1495C34.2197 24.6209 33.9016 25.0216 33.5009 25.3515C33.1002 25.6815 32.6367 25.9526 32.1103 26.1647C31.5918 26.3689 31.0497 26.53 30.4841 26.6478C29.9184 26.7657 29.3489 26.8442 28.7754 26.8835C28.2097 26.9228 27.6794 26.9424 27.1845 26.9424C26.6974 26.9424 26.1907 26.9228 25.6643 26.8835C25.1458 26.8521 24.6273 26.7931 24.1088 26.7067C23.5902 26.6203 23.0796 26.5064 22.5768 26.365C22.074 26.2157 21.5987 26.0311 21.1509 25.8111L21.1273 10.6329C21.5673 10.4522 22.0347 10.2911 22.5297 10.1497C23.0246 10.0005 23.5274 9.87869 24.0381 9.78443C24.5566 9.68228 25.0712 9.60765 25.5818 9.5605C26.0925 9.50554 26.5874 9.47803 27.0666 9.47803C27.6244 9.47803 28.1862 9.51339 28.7518 9.58408C29.3253 9.6548 29.8752 9.77264 30.4016 9.93763C30.928 10.1026 31.419 10.3187 31.8746 10.5858C32.3303 10.845 32.727 11.1671 33.0649 11.5521C33.4105 11.937 33.6777 12.3848 33.8662 12.8955C34.0626 13.4061 34.1608 13.9954 34.1608 14.6631C34.1608 15.1031 34.098 15.5156 33.9723 15.9005C33.8466 16.2855 33.6659 16.6311 33.4302 16.9375C33.1945 17.2439 32.9078 17.5071 32.5699 17.7271C32.2321 17.9392 31.8511 18.0963 31.4268 18.1984C31.9375 18.332 32.401 18.5284 32.8174 18.7877C33.2416 19.0469 33.5991 19.3612 33.8898 19.7304C34.1883 20.0996 34.4161 20.516 34.5733 20.9795C34.7382 21.4431 34.8207 21.938 34.8207 22.4644ZM28.8343 15.7473C28.8343 15.5195 28.7871 15.327 28.6929 15.1699C28.5986 15.0049 28.4808 14.8713 28.3394 14.7692C28.2058 14.6671 28.0565 14.5924 27.8915 14.5453C27.7344 14.4981 27.593 14.4746 27.4673 14.4746C27.3102 14.4746 27.157 14.4981 27.0077 14.5453C26.8584 14.5924 26.7131 14.6474 26.5717 14.7103L26.501 17.3264C26.6817 17.3264 26.9056 17.3107 27.1727 17.2793C27.4398 17.2478 27.6951 17.1811 27.9387 17.0789C28.1901 16.969 28.4022 16.8118 28.575 16.6076C28.7479 16.3955 28.8343 16.1087 28.8343 15.7473ZM27.1609 19.589C26.9331 19.589 26.7131 19.6126 26.501 19.6597L26.4538 22.3465C26.5717 22.3701 26.6856 22.3937 26.7956 22.4173C26.9134 22.4329 27.0274 22.4408 27.1373 22.4408C27.3023 22.4408 27.483 22.4251 27.6794 22.3937C27.8758 22.3544 28.0604 22.2837 28.2333 22.1815C28.4061 22.0716 28.5475 21.9262 28.6575 21.7456C28.7754 21.5648 28.8343 21.3252 28.8343 21.0267C28.8343 20.7281 28.7754 20.4846 28.6575 20.2961C28.5475 20.1075 28.41 19.9622 28.2451 19.86C28.0801 19.75 27.8994 19.6793 27.703 19.6479C27.5066 19.6086 27.3259 19.589 27.1609 19.589Z" fill="#B4B7C9" fill-opacity="0.33"/>
<path fill-rule="evenodd" clip-rule="evenodd" d="M27.3337 13.3999C27.1486 13.3999 26.9669 13.4324 26.7905 13.4973C26.6445 13.551 26.502 13.6138 26.363 13.6857L26.0828 13.8308L26 17.3999H26.4995C26.6812 17.3999 26.8949 17.3817 27.1362 17.3486C27.2974 17.3265 27.4555 17.2897 27.6099 17.2379C27.7183 17.2015 27.8245 17.1578 27.9286 17.107L27.9321 17.1053L27.9355 17.1036C28.2188 16.9592 28.4627 16.7497 28.6612 16.4766L28.664 16.4726L28.6669 16.4685C28.9067 16.1258 29 15.6974 29 15.2458C29 14.941 28.9459 14.643 28.8114 14.3793C28.7002 14.1541 28.5559 13.9602 28.3766 13.8079C28.2142 13.6644 28.0331 13.5597 27.8367 13.4938C27.6697 13.4358 27.5004 13.3999 27.3337 13.3999ZM27.3337 14.5323C27.2475 14.5323 27.1647 14.5472 27.0833 14.5771C27.068 14.5828 27.0529 14.5885 27.0377 14.5943L26.9999 16.227L27.0225 16.224C27.1323 16.2089 27.2382 16.1841 27.3407 16.1497C27.4115 16.1259 27.4809 16.0975 27.5491 16.0644C27.6968 15.9885 27.817 15.8841 27.9156 15.7496C27.9734 15.6651 28.0277 15.5171 28.0277 15.2458C28.0277 15.0946 28.0011 15.0075 27.9749 14.9565L27.9722 14.9514L27.9697 14.9462C27.9196 14.844 27.863 14.7727 27.8019 14.7214L27.7965 14.7168L27.7913 14.7121C27.7253 14.6534 27.6515 14.6099 27.5664 14.5816L27.5633 14.5806L27.5603 14.5796C27.4569 14.5434 27.383 14.5323 27.3337 14.5323Z" fill="#B4B7C9"/>
<path d="M49.7397 17.6328C49.7397 17.7126 49.7386 17.7921 49.7366 17.8713C49.7325 18.0277 49.7245 18.183 49.7124 18.3371C49.6758 18.8042 49.6024 19.2608 49.4922 19.7068C49.3272 20.3668 49.0876 20.9874 48.7734 21.5688C48.467 22.1501 48.0899 22.6843 47.6421 23.1714C47.2021 23.6507 46.7032 24.0631 46.1455 24.4088C45.5955 24.7545 44.9945 25.0255 44.3424 25.2219C43.6904 25.4105 42.999 25.5047 42.2684 25.5047C41.5613 25.5047 40.8857 25.4144 40.2415 25.2337C39.6052 25.053 39.0081 24.8016 38.4503 24.4795C37.8925 24.1495 37.3857 23.7567 36.9301 23.3011C36.4823 22.8375 36.0973 22.3269 35.7752 21.7691C35.461 21.2034 35.2135 20.5985 35.0328 19.9543C34.86 19.3101 34.7736 18.6384 34.7736 17.9392C34.7736 17.2557 34.856 16.5879 35.021 15.9358C35.186 15.2759 35.4217 14.6553 35.7281 14.0739C36.0423 13.4925 36.4194 12.9583 36.8594 12.4712C37.2993 11.9842 37.7904 11.5639 38.3324 11.2103C38.8824 10.8568 39.4755 10.5818 40.1119 10.3854C40.7482 10.189 41.4199 10.0908 42.127 10.0908C43.2661 10.0908 44.3032 10.2676 45.238 10.6211C46.1808 10.9746 46.9821 11.4813 47.6421 12.1413C48.3098 12.7934 48.8244 13.5868 49.1858 14.5217C49.5551 15.4488 49.7397 16.4858 49.7397 17.6328ZM44.5074 17.9392C44.5074 17.6013 44.4563 17.2753 44.3542 16.9611C44.26 16.639 44.1186 16.3561 43.93 16.1126C43.7414 15.8612 43.5058 15.6609 43.2229 15.5116C42.9479 15.3545 42.6298 15.2759 42.2684 15.2759C41.8991 15.2759 41.5692 15.3427 41.2785 15.4762C40.9878 15.6098 40.7364 15.7944 40.5243 16.0301C40.3201 16.2579 40.1629 16.529 40.0529 16.8432C39.9429 17.1496 39.888 17.4757 39.888 17.8213C39.888 18.1513 39.9351 18.4812 40.0294 18.8112C40.1237 19.1412 40.2651 19.4397 40.4536 19.7068C40.6422 19.974 40.8739 20.19 41.1489 20.355C41.4317 20.5199 41.7577 20.6024 42.127 20.6024C42.4962 20.6024 42.8262 20.5317 43.1169 20.3903C43.4154 20.241 43.6668 20.0446 43.8711 19.8011C44.0753 19.5497 44.2325 19.2629 44.3424 18.9408C44.4524 18.6188 44.5074 18.2848 44.5074 17.9392Z" fill="#B4B7C9" fill-opacity="0.33"/>
<path d="M50.2936 26.534L58.1809 25.6641L56.1394 31.4363L56.3912 31.562L65.7546 20.2135L56.3272 20.5004L57.8355 9.18747L51.2992 7.17627L50.2936 26.534Z" fill="#B4B7C9" fill-opacity="0.33"/>
<path fill-rule="evenodd" clip-rule="evenodd" d="M72.3538 15.04L72.4716 10.0435L59.6269 10.067L59.4854 15.6292L62.9973 15.4407L63.1546 19.2863L67.9436 19.1406L63.3753 24.677L63.4448 26.3766L68.4181 26.1173L68.8423 15.1814L72.3538 15.04ZM49.7125 18.3368L49.7366 17.8711C49.7326 18.0275 49.7246 18.1827 49.7125 18.3368Z" fill="#B4B7C9" fill-opacity="0.33"/>
<path fill-rule="evenodd" clip-rule="evenodd" d="M80.6737 14.54L75.1666 14.9717L72.7734 18.7446L74.938 23.5073L80.7102 23.9462L82.83 19.0174L80.6737 14.54ZM75.8161 16.0505L79.9939 15.7232L81.5931 19.0439L79.9939 22.7623L75.6877 22.4349L74.0509 18.8335L75.8161 16.0505Z" fill="#B4B7C9"/>
<path fill-rule="evenodd" clip-rule="evenodd" d="M104.949 14.677C105.082 13.9362 105.232 13.2037 105.398 12.4794C105.576 11.7296 105.755 10.984 105.933 10.2427L106.063 9.70261V9.70399C106.065 9.72567 106.067 9.74725 106.068 9.76868C106.079 9.90934 106.086 10.0552 106.089 10.2065C106.095 10.45 106.095 10.8043 106.088 11.276V11.286V11.2961C106.09 11.7546 106.081 12.28 106.061 12.8734V12.881L106.06 12.8886C106.049 13.4652 106.021 14.0868 105.977 14.7537C105.934 15.4113 105.871 16.0651 105.787 16.7151L105.786 16.721L105.785 16.727C105.71 17.36 105.611 17.9659 105.487 18.5453L105.486 18.5526L105.484 18.5598C105.372 19.1241 105.235 19.6013 105.079 19.9985C104.97 20.2751 104.859 20.4848 104.753 20.6413C104.74 20.6008 104.728 20.5582 104.716 20.5136C104.656 20.2542 104.616 19.9908 104.597 19.7228C104.573 19.3976 104.56 19.1654 104.557 19.016C104.541 18.2881 104.569 17.5683 104.641 16.8564C104.715 16.1273 104.818 15.4017 104.949 14.6794V14.677ZM105.869 8.051L105.961 8.80874L104.795 8.85363C103.78 8.89269 102.76 8.90273 101.735 8.88371C100.692 8.86436 99.6525 8.84067 98.6179 8.81266L98.2628 8.80305L98.2928 8.07866L84.2374 8.38902L84.2224 28.5484L92.952 28.1829L92.771 21.1363L96.8426 20.9299C96.873 21.0982 96.9087 21.2671 96.9492 21.4366L96.9511 21.4446L96.953 21.4526C97.1095 22.0688 97.3228 22.672 97.5912 23.2616L97.5957 23.2715L97.6002 23.2813C97.881 23.8681 98.2177 24.428 98.6093 24.9604L98.6119 24.9642L98.6149 24.9679C99.0169 25.5055 99.4708 25.9841 99.9765 26.4L99.9817 26.4041L99.9866 26.4082C100.505 26.8241 101.073 27.1583 101.689 27.4091L101.696 27.4121L101.703 27.4149C102.354 27.6694 103.039 27.7917 103.75 27.7878C104.059 27.7909 104.374 27.7674 104.694 27.7203L104.711 27.7177L104.728 27.7147C104.915 27.6812 105.1 27.6394 105.281 27.589L105.174 28.7204L112.709 28.0016L112.72 27.8202L121.482 27.2482L121.484 27.0469L130.947 27.0023L130.971 25.9067C130.993 24.9457 131.002 23.9933 130.999 23.0495C131.003 22.0968 130.995 21.1361 130.974 20.1675L130.936 18.4718C130.922 17.8331 130.89 17.1748 130.84 16.4972C130.798 15.8044 130.725 15.105 130.621 14.399C130.514 13.668 130.367 12.9647 130.177 12.2899C129.984 11.5998 129.733 10.9463 129.424 10.3317C129.099 9.67885 128.692 9.10014 128.198 8.60723C127.688 8.0977 127.087 7.70431 126.407 7.42476C125.687 7.12831 124.891 7.00663 124.046 7.02529C123.551 7.03623 123.069 7.11678 122.605 7.27073C122.21 7.39655 121.833 7.56595 121.477 7.77788L121.479 7.04723L113.222 7.6501L113.219 7.91172L112.916 7.93628C112.501 7.96987 112.087 7.99539 111.672 8.01284L110.408 8.04075C109.861 8.05282 109.319 8.06059 108.781 8.06406C108.242 8.06753 107.7 8.0669 107.152 8.06215L105.869 8.051ZM121.943 21.2866C121.816 22.5173 121.667 23.7515 121.494 24.9894C121.498 23.8828 121.497 22.7854 121.492 21.6972C121.484 20.2134 121.485 18.7209 121.494 17.2197L121.495 17.2038L121.494 17.1879C121.491 17.0194 121.49 16.7986 121.491 16.5225C121.501 16.2522 121.518 15.9641 121.542 15.6581C121.574 15.368 121.619 15.0767 121.68 14.784C121.719 14.5956 121.767 14.4306 121.821 14.2867C121.851 14.4113 121.877 14.5471 121.899 14.6946L121.902 14.7108L121.905 14.7269C121.958 15.0218 121.999 15.3115 122.029 15.5962V15.5987C122.06 15.8901 122.081 16.1474 122.094 16.3716C122.108 16.6167 122.115 16.7785 122.117 16.868C122.15 18.352 122.092 19.8247 121.943 21.2866ZM97.0296 11.6052C97.0547 10.8223 97.084 10.0309 97.1174 9.23078L85.3625 9.49035L85.3494 27.3737L91.7976 27.1038L91.6167 20.0668L96.0761 19.8407L96.2439 15.8829L91.5521 15.9865L91.5168 14.3801L96.9162 13.9802C96.9665 13.1798 97.0044 12.3881 97.0296 11.6052ZM113.007 9.05846C112.691 12.0587 112.429 15.045 112.222 18.0173C112.016 20.9811 111.822 23.9659 111.642 26.9717L106.423 27.4696L106.609 25.5011C106.444 25.7004 106.248 25.8748 106.022 26.0243C105.804 26.1737 105.568 26.2979 105.315 26.3971C105.062 26.4877 104.8 26.5573 104.529 26.6058C104.258 26.6458 103.999 26.6642 103.752 26.6612C103.174 26.6654 102.628 26.5669 102.113 26.3657C101.598 26.156 101.124 25.8773 100.692 25.5297C100.258 25.1736 99.8669 24.7614 99.5162 24.2929C99.1656 23.816 98.8657 23.3166 98.616 22.7949C98.3747 22.2645 98.1839 21.7245 98.0443 21.1748C97.9133 20.625 97.842 20.0908 97.8303 19.5724C97.8134 18.8074 97.8089 18.0167 97.8164 17.2002C97.8322 16.375 97.869 15.5493 97.9276 14.7232C97.9857 13.8971 98.0653 13.0789 98.1667 12.2689C98.2763 11.4586 98.4163 10.6817 98.5871 9.93808C99.6251 9.9662 100.667 9.98996 101.714 10.0094C102.76 10.0288 103.801 10.0185 104.838 9.97863C104.659 10.7224 104.48 11.4704 104.301 12.2227C104.13 12.9663 103.977 13.718 103.84 14.4778C103.704 15.2291 103.598 15.9841 103.521 16.7426C103.444 17.5011 103.414 18.2671 103.431 19.0405C103.435 19.219 103.449 19.4738 103.473 19.8049C103.498 20.136 103.548 20.4623 103.623 20.7838C103.706 21.1051 103.823 21.3874 103.973 21.6307C104.131 21.8653 104.346 21.9796 104.618 21.9736C104.941 21.9664 105.227 21.8241 105.476 21.5464C105.725 21.2604 105.942 20.8814 106.127 20.4096C106.312 19.9378 106.466 19.3945 106.589 18.7795C106.719 18.1643 106.825 17.5243 106.903 16.8592C106.99 16.1855 107.057 15.508 107.101 14.8267C107.146 14.1455 107.174 13.5071 107.186 12.9116C107.207 12.3073 107.216 11.7671 107.214 11.291C107.221 10.8146 107.221 10.4448 107.215 10.1813C107.211 10.0113 107.203 9.84562 107.191 9.68431C107.179 9.52304 107.163 9.35757 107.142 9.18795C107.695 9.19275 108.244 9.1934 108.788 9.18988C109.332 9.18637 109.88 9.17852 110.433 9.16632L111.707 9.13816C112.141 9.1201 112.574 9.09353 113.007 9.05846ZM129.872 23.0489C129.877 22.1049 129.868 21.1527 129.847 20.1923L129.839 19.8138C129.83 19.4066 129.82 18.9675 129.81 18.4966C129.796 17.8761 129.765 17.2348 129.716 16.5726C129.676 15.9102 129.606 15.24 129.506 14.5619C129.406 13.8753 129.268 13.2193 129.093 12.594C128.918 11.9685 128.692 11.3825 128.416 10.8359C128.14 10.2807 127.803 9.8035 127.402 9.40416C127.003 9.00482 126.528 8.69216 125.979 8.46618C125.429 8.24021 124.793 8.1352 124.071 8.15116C123.68 8.15979 123.308 8.22329 122.953 8.34167C122.607 8.45136 122.278 8.60316 121.968 8.7971C121.657 8.98253 121.365 9.20584 121.09 9.46702C120.824 9.728 120.575 10.0056 120.343 10.2999L120.349 8.25885L114.338 8.69771C114.311 11.7001 114.249 14.6862 114.153 17.6561C114.066 20.6258 113.97 23.6126 113.866 26.6167L120.362 26.1927C120.371 24.6788 120.372 23.1822 120.365 21.7027C120.358 20.2147 120.359 18.7181 120.368 17.2127C120.364 17.0258 120.363 16.7877 120.365 16.4985C120.375 16.2006 120.394 15.8856 120.421 15.5534C120.456 15.2209 120.508 14.8881 120.577 14.555C120.646 14.2218 120.742 13.9221 120.864 13.6558C120.994 13.3808 121.154 13.1562 121.346 12.9819C121.546 12.8073 121.791 12.7169 122.08 12.7105C122.241 12.707 122.379 12.7932 122.494 12.9692C122.616 13.1366 122.719 13.3555 122.802 13.6257C122.893 13.8958 122.963 14.1962 123.013 14.5267C123.071 14.8486 123.116 15.1665 123.149 15.4804C123.181 15.7858 123.204 16.0616 123.218 16.3079C123.232 16.5542 123.24 16.7326 123.243 16.8431C123.276 18.373 123.216 19.8922 123.063 21.4008C122.909 22.9008 122.721 24.4058 122.499 25.9159L129.846 25.8812C129.867 24.9283 129.876 23.9842 129.872 23.0489Z" fill="#B4B7C9"/>
<path fill-rule="evenodd" clip-rule="evenodd" d="M27.0911 19C26.8633 19 26.6404 19.0278 26.4236 19.0846L26.0539 19.1814L26 22.8016L26.3933 22.8942C26.4919 22.9174 26.587 22.9406 26.6786 22.9638L26.697 22.9684L26.7157 22.9713C26.8357 22.9902 26.9542 23 27.071 23C27.2418 23 27.4218 22.9809 27.6096 22.9455L27.6188 22.9438L27.6279 22.9416C27.8486 22.8896 28.057 22.7956 28.2509 22.6606L28.2577 22.6558L28.2644 22.6508C28.4741 22.4937 28.6449 22.2863 28.7753 22.0363C28.9397 21.7352 29 21.3781 29 21.0119C29 20.644 28.9392 20.2885 28.7801 19.9847C28.6534 19.7312 28.4868 19.5179 28.2764 19.3625C28.0825 19.2117 27.8687 19.113 27.6393 19.0682C27.4501 19.0242 27.2667 19 27.0911 19ZM27.0011 20.1345L26.9753 21.8641C27.0082 21.8664 27.04 21.8676 27.071 21.8676C27.1794 21.8676 27.3046 21.8556 27.448 21.8291C27.5566 21.8024 27.6583 21.7566 27.7547 21.6906C27.8353 21.6287 27.9025 21.5476 27.9579 21.4403L27.9618 21.4328L27.9659 21.4254C27.9995 21.3647 28.0387 21.2429 28.0387 21.0119C28.0387 20.7825 28 20.651 27.9609 20.5773L27.957 20.57L27.9534 20.5625C27.8941 20.4428 27.8295 20.3683 27.7635 20.3202L27.7566 20.3152L27.7499 20.3099C27.6667 20.2445 27.5775 20.2034 27.4778 20.1846L27.4686 20.1829L27.4595 20.1807C27.3166 20.147 27.1944 20.1324 27.0911 20.1324C27.0608 20.1324 27.0308 20.1331 27.0011 20.1345Z" fill="#B4B7C9"/>
</svg>
