<svg width="154" height="36" viewBox="0 0 154 36" fill="none" xmlns="http://www.w3.org/2000/svg">
<path d="M50 29.0127H51.2116C51.7896 29.0127 52.1483 29.2924 52.1483 29.7542C52.1483 30.089 51.9609 30.339 51.658 30.4153C52.0327 30.4831 52.2559 30.7669 52.2559 31.1653C52.2559 31.6737 51.8693 31.9788 51.2395 31.9788H50V29.0127ZM50.4703 29.4576V30.2415H51.1877C51.4866 30.2415 51.666 30.0932 51.666 29.8432C51.666 29.5932 51.4866 29.4576 51.1877 29.4576H50.4703ZM50.4703 30.6822V31.5339H51.1877C51.5544 31.5339 51.7736 31.3814 51.7736 31.1017C51.7736 30.839 51.5544 30.6822 51.1877 30.6822H50.4703Z" fill="#B4B7C9"/>
<path d="M56.0225 29.0127V30.75C56.0225 31.5254 55.5642 32 54.8109 32C54.0576 32 53.5953 31.5254 53.5953 30.75V29.0127H54.0656V30.75C54.0656 31.25 54.3565 31.5508 54.8149 31.5508C55.2692 31.5508 55.5522 31.2542 55.5522 30.75V29.0127H56.0225Z" fill="#B4B7C9"/>
<path d="M58.0021 31.9788H57.5318V29.0127H58.0021V31.9788Z" fill="#B4B7C9"/>
<path d="M60.0418 31.5254H61.2494V31.9788H59.5715V29.0127H60.0418V31.5254Z" fill="#B4B7C9"/>
<path d="M62.5375 29.0127H63.6814C64.5184 29.0127 65.1242 29.6356 65.1242 30.4958C65.1242 31.3517 64.5144 31.9788 63.6694 31.9788H62.5375V29.0127ZM63.0078 29.4619V31.5297H63.6933C64.2354 31.5297 64.6499 31.1017 64.6499 30.5C64.6499 29.8941 64.2234 29.4619 63.6734 29.4619H63.0078Z" fill="#B4B7C9"/>
<path d="M69.577 29C70.41 29 71.0557 29.6483 71.0557 30.4958C71.0557 31.3432 70.41 32 69.577 32C68.744 32 68.0983 31.3432 68.0983 30.4958C68.0983 29.6441 68.744 29 69.577 29ZM69.581 29.4492C69.0309 29.4492 68.5766 29.9068 68.5766 30.4958C68.5766 31.0847 69.0349 31.5508 69.581 31.5508C70.127 31.5508 70.5734 31.0847 70.5734 30.4958C70.5734 29.9068 70.127 29.4492 69.581 29.4492Z" fill="#B4B7C9"/>
<path d="M74.8124 31.9788H74.3501L72.8634 29.8517V31.9788H72.3931V29.0127H72.8555L74.3501 31.1441V29.0127H74.8124V31.9788Z" fill="#B4B7C9"/>
<path d="M78.2512 29.0127H79.4629C80.0408 29.0127 80.3995 29.2924 80.3995 29.7542C80.3995 30.089 80.2122 30.339 79.9093 30.4153C80.2839 30.4831 80.5071 30.7669 80.5071 31.1653C80.5071 31.6737 80.1205 31.9788 79.4908 31.9788H78.2512V29.0127ZM78.7215 29.4576V30.2415H79.439C79.7379 30.2415 79.9172 30.0932 79.9172 29.8432C79.9172 29.5932 79.7379 29.4576 79.439 29.4576H78.7215ZM78.7215 30.6822V31.5339H79.439C79.8056 31.5339 80.0249 31.3814 80.0249 31.1017C80.0249 30.839 79.8056 30.6822 79.439 30.6822H78.7215Z" fill="#B4B7C9"/>
<path d="M82.3726 31.9788H81.9023V29.0127H82.3726V31.9788Z" fill="#B4B7C9"/>
<path d="M85.8471 29.4619H84.9623V31.9788H84.492V29.4619H83.6112V29.0127H85.8471V29.4619Z" fill="#B4B7C9"/>
<path d="M88.1553 29C88.5498 29 88.9444 29.1737 89.2154 29.4576L88.9404 29.822C88.7372 29.589 88.4462 29.4449 88.1632 29.4449C87.6052 29.4449 87.1668 29.9025 87.1668 30.4873C87.1668 31.072 87.6052 31.5339 88.1632 31.5339C88.4422 31.5339 88.7292 31.3983 88.9404 31.1822L89.2194 31.5127C88.9365 31.8093 88.5339 32 88.1393 32C87.3223 32 86.6885 31.3432 86.6885 30.4915C86.6885 29.6483 87.3302 29 88.1553 29Z" fill="#B4B7C9"/>
<path d="M91.7249 29C92.5579 29 93.2036 29.6483 93.2036 30.4958C93.2036 31.3432 92.5579 32 91.7249 32C90.8919 32 90.2462 31.3432 90.2462 30.4958C90.2462 29.6441 90.8919 29 91.7249 29ZM91.7289 29.4492C91.1788 29.4492 90.7245 29.9068 90.7245 30.4958C90.7245 31.0847 91.1828 31.5508 91.7289 31.5508C92.2749 31.5508 92.7213 31.0847 92.7213 30.4958C92.7213 29.9068 92.2749 29.4492 91.7289 29.4492Z" fill="#B4B7C9"/>
<path d="M95.0113 31.9788H94.541V29.0127H95.0113V31.9788Z" fill="#B4B7C9"/>
<path d="M99 31.9788H98.5377L97.051 29.8517V31.9788H96.5807V29.0127H97.043L98.5377 31.1441V29.0127H99V31.9788Z" fill="#B4B7C9"/>
<path fill-rule="evenodd" clip-rule="evenodd" d="M92.6533 16.1768L94.7264 17.1312C94.9647 17.2396 95.0914 17.4986 95.0461 17.7597C94.6887 19.4603 93.9561 21.0326 92.9319 22.3755C92.7747 22.5863 92.4971 22.6544 92.2587 22.546L90.1856 21.5916C89.4212 22.3778 88.522 23.0178 87.5316 23.4796L87.7452 25.7571C87.7695 26.0163 87.6107 26.26 87.3621 26.3393C85.785 26.8515 84.0513 27.0327 82.3217 26.812C82.0626 26.7802 81.8613 26.5703 81.837 26.311L81.6235 24.0336C80.5603 23.769 79.5578 23.3073 78.6648 22.6719L76.8052 23.995C76.5958 24.1454 76.3053 24.1259 76.1121 23.9526C74.8557 22.8189 73.8436 21.4102 73.1767 19.8103C73.0794 19.5672 73.1558 19.2892 73.3698 19.1384L75.2293 17.8153C74.9302 16.76 74.8269 15.6582 74.9246 14.5657L72.8515 13.6113C72.6132 13.5029 72.4819 13.2444 72.5369 12.9871C72.8943 11.2865 73.6269 9.71412 74.6511 8.37126C74.8083 8.16039 75.0859 8.09233 75.3243 8.20074L77.3927 9.15554C78.1572 8.36939 79.0563 7.72938 80.0467 7.26761L79.8332 4.99012C79.8089 4.73089 79.9676 4.48719 80.2163 4.40784C81.7933 3.89572 83.5271 3.71447 85.2567 3.93522C85.5158 3.96696 85.717 4.17691 85.7413 4.43613L85.9545 6.70899C87.0176 6.97354 88.0201 7.43524 88.9132 8.07064L90.7727 6.74753C90.9821 6.59714 91.2726 6.6166 91.4658 6.78994C92.7222 7.92362 93.7344 9.33238 94.4012 10.9323C94.4985 11.1753 94.4222 11.4533 94.2081 11.6041L92.3486 12.9273C92.6478 13.9826 92.7511 15.0843 92.6533 16.1768ZM84.2554 20.37C81.5065 20.6278 79.0584 18.5935 78.7999 15.8367C78.5415 13.08 80.5687 10.626 83.3175 10.3683C86.0663 10.1106 88.5145 12.1449 88.7729 14.9016C89.0314 17.6583 87.0042 20.1123 84.2554 20.37Z" fill="#B4B7C9" fill-opacity="0.5"/>
<path d="M118.945 14.8545C119.382 12.0174 117.158 10.4923 114.117 9.47489L115.104 5.63174L112.695 5.04874L111.735 8.79061C111.102 8.63737 110.452 8.49278 109.805 8.34953L110.773 4.583L108.366 4L107.378 7.84182C106.854 7.72588 106.34 7.61128 105.841 7.49068L105.843 7.47869L102.522 6.67315L101.881 9.17173C101.881 9.17173 103.668 9.5695 103.63 9.59416C104.606 9.83069 104.782 10.4577 104.753 10.9547C102.05 21.4827 104.753 10.9547 102.05 21.4827C101.931 21.7706 101.628 22.2023 100.946 22.0384C100.97 22.0724 99.1956 21.614 99.1956 21.614L98 24.2918L101.134 25.0507C101.717 25.1926 102.289 25.3412 102.851 25.4811L101.854 29.3683L104.26 29.9513L105.247 26.1054C105.904 26.2787 106.542 26.4386 107.166 26.5892L106.183 30.417L108.591 31L109.588 27.1202C113.695 27.8751 116.783 27.5706 118.083 23.9627C119.13 21.0576 118.031 19.3819 115.87 18.2892C117.444 17.9368 118.629 16.9313 118.945 14.8545ZM113.442 22.3496C112.698 25.2546 107.662 23.6842 106.03 23.2904L107.352 18.1406C108.985 18.5364 114.22 19.32 113.442 22.3496ZM114.187 14.8125C113.508 17.455 109.317 16.1125 107.957 15.7833L109.156 11.1126C110.516 11.4418 114.895 12.0561 114.187 14.8125Z" fill="#B4B7C9"/>
<path d="M47.191 6.78955H49.9888V9.5873H47.191V6.78955Z" fill="#B4B7C9" fill-opacity="0.5"/>
<path d="M49.0562 24.5088H52.7865V27.3065H49.0562V24.5088Z" fill="#B4B7C9" fill-opacity="0.5"/>
<path fill-rule="evenodd" clip-rule="evenodd" d="M61.3375 8.65479H52.7865V10.52H50.9213V13.3178H52.7865V13.9838H55.7037V12.092H57.3315V10.5298H59.5937V12.092H61.1251C62.6919 12.092 63.6745 12.8114 63.6745 14.0904C63.6745 15.396 62.6919 16.1688 61.1251 16.1688H55.8562V17.0431H52.7865V21.3853H55.7037V19.4195H61.1251C63.1168 19.4195 64.3118 20.2455 64.3118 21.6044C64.3118 23.0432 63.1168 23.8692 61.1251 23.8692H55.8562V25.0367H57.7249V27.3065H61.6296C65.9583 27.3065 68.6404 25.3347 68.6404 22.1373C68.6404 19.6859 67.1533 17.874 64.7633 17.4211C66.755 16.9148 67.9765 15.3427 67.9765 13.3177C67.9765 10.44 65.4272 8.65479 61.3375 8.65479ZM54.1841 27.3065V25.8262H52.7865V27.3065H54.1841Z" fill="#B4B7C9" fill-opacity="0.5"/>
<path d="M43.4607 4.92432H45.3259V7.72207H43.4607V4.92432Z" fill="#B4B7C9" fill-opacity="0.5"/>
<path d="M48.1236 11.4526H50.9213V14.2504H48.1236V11.4526Z" fill="#B4B7C9" fill-opacity="0.5"/>
<path d="M45.3259 19.8457H48.1236V21.7109H45.3259V19.8457Z" fill="#B4B7C9" fill-opacity="0.5"/>
<path d="M44.3932 28.2388H47.191V30.1039H44.3932V28.2388Z" fill="#B4B7C9" fill-opacity="0.5"/>
<path d="M42.5281 19.8457H44.3932V21.7109H42.5281V19.8457Z" fill="#B4B7C9" fill-opacity="0.5"/>
<path d="M40.6629 10.52H42.5281V12.3852H40.6629V10.52Z" fill="#B4B7C9" fill-opacity="0.5"/>
<path d="M36 8.65479H36.9326V9.58737H36V8.65479Z" fill="#B4B7C9" fill-opacity="0.5"/>
<path d="M36.9326 14.25H38.7977V16.1152H36.9326V14.25Z" fill="#B4B7C9" fill-opacity="0.5"/>
<path d="M39.7303 23.5762H41.5955V25.4413H39.7303V23.5762Z" fill="#B4B7C9" fill-opacity="0.5"/>
<path d="M37.8652 26.3735H39.7303V28.2387H37.8652V26.3735Z" fill="#B4B7C9" fill-opacity="0.5"/>
</svg>
