<svg width="154" height="36" viewBox="0 0 154 36" fill="none" xmlns="http://www.w3.org/2000/svg">
<path d="M67.5441 15.6453C69.0627 15.6453 70.2356 16.1482 71.0638 17.1544C71.8917 18.1606 72.3056 19.5839 72.3056 21.425V22.4741H65.0191C65.0944 23.4301 65.4019 24.1866 65.9413 24.7431C66.4808 25.2997 67.1591 25.5779 67.9768 25.5779C69.1242 25.5779 70.0588 25.0963 70.7803 24.133L72.1303 25.4708C71.6838 26.1631 71.0878 26.6998 70.3423 27.0816C69.5968 27.4634 68.7601 27.6543 67.8325 27.6543C66.2454 27.6543 64.9587 27.1352 63.9728 26.097C62.9868 25.0589 62.4937 23.6764 62.4937 21.9495V21.6283C62.4937 20.4723 62.7086 19.4396 63.1381 18.5296C63.5673 17.6199 64.1703 16.9118 64.9466 16.4052C65.7232 15.8986 66.5889 15.6453 67.5441 15.6453ZM62.9042 11.8564V14.0396H58.225V27.4403H55.6378V14.0396H51V11.8564H62.9042ZM67.5338 17.7323C66.8466 17.7323 66.2917 17.9822 65.8692 18.4815C65.4468 18.9811 65.1771 19.6768 65.0601 20.5688H69.8322V20.3761C69.7771 19.5057 69.5537 18.8472 69.162 18.4015C68.7704 17.9554 68.2277 17.7323 67.5338 17.7323ZM76.4143 27.4403H73.9098V11H76.4143V27.4403ZM83.4652 27.6543C81.878 27.6543 80.5913 27.1352 79.6054 26.097C78.6192 25.0589 78.1264 23.6764 78.1264 21.9495V21.6283C78.1264 20.4723 78.341 19.4396 78.7705 18.5296C79.1999 17.6199 79.8027 16.9118 80.5793 16.4052C81.3556 15.8986 82.2213 15.6453 83.1764 15.6453C84.695 15.6453 85.8682 16.1482 86.6961 17.1544C87.524 18.1606 87.938 19.5839 87.938 21.425V22.4741H80.6514C80.727 23.4301 81.0346 24.1866 81.5737 24.7431C82.1131 25.2997 82.7918 25.5779 83.6094 25.5779C84.7568 25.5779 85.6912 25.0963 86.4126 24.133L87.7629 25.4708C87.3162 26.1631 86.7202 26.6998 85.9746 27.0816C85.2291 27.4634 84.3927 27.6543 83.4652 27.6543ZM83.1661 17.7323C82.479 17.7323 81.9243 17.9822 81.5016 18.4815C81.0791 18.9811 80.8094 19.6768 80.6927 20.5688H85.4645V20.3761C85.4094 19.5057 85.1863 18.8472 84.7947 18.4015C84.403 17.9554 83.8601 17.7323 83.1661 17.7323ZM89.1496 21.5641C89.1496 19.766 89.5568 18.3299 90.3709 17.2561C91.1853 16.182 92.2656 15.6453 93.6124 15.6453C94.8836 15.6453 95.8833 16.1056 96.6115 17.026L96.7249 15.8593H98.982V27.0871C98.982 28.6069 98.527 29.8058 97.6164 30.6833C96.7062 31.561 95.4778 32 93.932 32C93.1143 32 92.3155 31.8231 91.5357 31.47C90.7558 31.1168 90.1631 30.6549 89.7576 30.0841L90.9429 28.5214C91.7124 29.4703 92.6608 29.945 93.7877 29.945C94.6191 29.945 95.2752 29.7112 95.756 29.2438C96.2371 28.7765 96.4775 28.0897 96.4775 27.1833V26.4021C95.756 27.2369 94.7942 27.6543 93.5919 27.6543C92.2861 27.6543 91.2196 27.1157 90.3917 26.0383C89.5635 24.9605 89.1496 23.4693 89.1496 21.5641ZM91.6438 21.7891C91.6438 22.9521 91.8722 23.8672 92.3292 24.5343C92.7863 25.2013 93.4201 25.535 94.2307 25.535C95.2409 25.535 95.9897 25.0857 96.4775 24.1866V19.0917C96.0035 18.2139 95.2615 17.7752 94.2515 17.7752C93.4268 17.7752 92.7863 18.1141 92.3292 18.7921C91.8722 19.4698 91.6438 20.469 91.6438 21.7891ZM107.099 18.2355C106.769 18.1783 106.429 18.1497 106.079 18.1497C104.931 18.1497 104.158 18.6064 103.76 19.5197V27.4403H101.255V15.8593H103.646L103.708 17.1544C104.313 16.1482 105.151 15.6453 106.223 15.6453C106.58 15.6453 106.876 15.6952 107.109 15.7951L107.099 18.2355ZM114.742 27.4403C114.632 27.2189 114.536 26.8588 114.453 26.3592C113.656 27.2226 112.681 27.6543 111.526 27.6543C110.406 27.6543 109.492 27.3224 108.785 26.659C108.077 25.9953 107.723 25.1749 107.723 24.1973C107.723 22.9627 108.165 22.0156 109.047 21.3555C109.93 20.6955 111.193 20.3655 112.835 20.3655H114.371V19.6056C114.371 19.0061 114.209 18.5263 113.886 18.1658C113.564 17.8057 113.072 17.6254 112.413 17.6254C111.842 17.6254 111.375 17.7734 111.011 18.0696C110.647 18.3655 110.465 18.7421 110.465 19.1988H107.96C107.96 18.5637 108.163 17.9698 108.568 17.4166C108.974 16.8637 109.525 16.4302 110.222 16.1163C110.92 15.8021 111.698 15.6453 112.557 15.6453C113.862 15.6453 114.903 15.986 115.68 16.6673C116.456 17.349 116.855 18.3068 116.875 19.5413V24.7645C116.875 25.8063 117.016 26.6374 117.298 27.2582V27.4403H114.742ZM111.99 25.5673C112.485 25.5673 112.95 25.4425 113.387 25.1925C113.823 24.9429 114.151 24.6074 114.371 24.1866V22.0031H113.021C112.093 22.0031 111.396 22.1705 110.928 22.5061C110.461 22.8416 110.228 23.3159 110.228 23.9297C110.228 24.429 110.388 24.8269 110.707 25.1231C111.026 25.419 111.454 25.5673 111.99 25.5673ZM121.56 15.8593L121.632 17.0689C122.416 16.1196 123.487 15.6453 124.848 15.6453C126.339 15.6453 127.359 16.2374 127.909 17.4221C128.72 16.2374 129.86 15.6453 131.331 15.6453C132.561 15.6453 133.476 15.9984 134.077 16.7048C134.679 17.4114 134.986 18.4529 135 19.8302V27.4403H132.496V19.9051C132.496 19.1702 132.341 18.6313 132.032 18.2888C131.722 17.9463 131.211 17.7752 130.496 17.7752C129.926 17.7752 129.46 17.9338 129.1 18.2514C128.739 18.5689 128.486 18.9848 128.342 19.4984L128.352 27.4403H125.848V19.8196C125.813 18.4566 125.144 17.7752 123.838 17.7752C122.835 17.7752 122.124 18.1996 121.704 19.049V27.4403H119.2V15.8593H121.56Z" fill="#B4B7C9" fill-opacity="0.5"/>
<path fill-rule="evenodd" clip-rule="evenodd" d="M22.9551 9.95402C25.4842 7.4232 28.9204 6 32.5 6C36.0796 6 39.5158 7.4232 42.0449 9.95402C44.5762 12.4848 46 15.921 46 19.5C46 23.079 44.5762 26.5151 42.0449 29.046C39.5158 31.5768 36.0796 33 32.5 33C28.9204 33 25.4842 31.5768 22.9551 29.046C20.4238 26.5151 19 23.079 19 19.5C19 15.921 20.4238 12.4848 22.9551 9.95402ZM33.0856 15.8167C31.7432 16.3561 29.0584 17.4726 25.0311 19.1659C24.3771 19.4169 24.0339 19.6626 24.0037 19.9026C23.9506 20.308 24.4766 20.4679 25.1913 20.6852C25.2893 20.715 25.3909 20.7459 25.4951 20.7786C26.2008 20.9999 27.1504 21.2588 27.6425 21.269C28.0914 21.2784 28.5899 21.1003 29.1403 20.7349C32.9042 18.2834 34.8445 17.0442 34.9675 17.0176C35.0539 16.9988 35.1726 16.9751 35.2525 17.0445C35.3345 17.1136 35.3258 17.2449 35.3172 17.2801C35.2663 17.4942 33.2078 19.3416 32.1367 20.303C31.7999 20.6052 31.5608 20.8198 31.5122 20.8686C31.4038 20.9773 31.2933 21.0802 31.1871 21.179C30.5321 21.7885 30.0407 22.2457 31.2144 22.9921C31.7835 23.354 32.2377 23.6526 32.6917 23.9511C33.1795 24.2719 33.667 24.5924 34.2963 24.9909C34.4582 25.0933 34.6127 25.1996 34.7632 25.3031C35.3353 25.6968 35.8492 26.0505 36.4848 25.9941C36.8539 25.9613 37.2359 25.6263 37.428 24.6271C37.8856 22.2657 38.7855 17.1495 38.9927 15.0411C39.0122 14.8565 38.9884 14.6201 38.9711 14.5163C38.9517 14.4126 38.9128 14.2647 38.7747 14.1553C38.6085 14.0255 38.3538 13.9982 38.2395 14.0001C37.7193 14.009 36.923 14.2765 33.0856 15.8167Z" fill="#B4B7C9"/>
</svg>
