<svg width="154" height="36" viewBox="0 0 154 36" fill="none" xmlns="http://www.w3.org/2000/svg">
<g clip-path="url(#clip0_456_3207)">
<path fill-rule="evenodd" clip-rule="evenodd" d="M26 20C26 26.6274 20.6274 32 14 32C7.37259 32 2 26.6274 2 20C2 13.3726 7.37259 8 14 8C20.6274 8 26 13.3726 26 20ZM12.2 20.0001L15.6 20C16.5941 20 17.4 19.1941 17.4 18.2C17.4 17.2059 16.5941 16.4001 15.6 16.4001H12.2V20.0001ZM9.8 14H15.6C17.9196 14 19.8 15.8804 19.8 18.2C19.8 20.5196 17.9196 22.4001 15.6 22.4001H12.2V26H9.8V14Z" fill="#B4B7C9"/>
<path fill-rule="evenodd" clip-rule="evenodd" d="M34.3333 26.6664V13.333H40.4588C43.3064 13.333 44.8573 15.2574 44.8573 17.555C44.8573 19.8327 43.2873 21.7569 40.4588 21.7569H37.1217V26.6664H34.3333ZM52.0716 16.7107V19.145C51.8941 19.1059 51.6783 19.0867 51.3841 19.0867C50.5591 19.0867 49.4589 19.5575 49.0464 20.1669V26.6664H46.5538V16.9459H49.0464V18.2225C49.7339 17.3975 50.8933 16.7107 52.0716 16.7107ZM58.0243 16.7107C61.1663 16.7107 63.0513 18.9884 63.0513 21.6785C63.0513 24.3687 61.1663 26.6664 58.0243 26.6664C54.9018 26.6664 53.0166 24.3687 53.0166 21.6785C53.0166 18.9884 54.9018 16.7107 58.0243 16.7107ZM40.0668 15.7874C41.1653 15.7874 42.0112 16.4549 42.0112 17.555C42.0112 18.635 41.1653 19.3025 40.0668 19.3025H37.1217V15.7874H40.0668ZM73.9559 13.333V26.6664H71.4423V25.213C70.6957 26.1555 69.6756 26.6664 68.5164 26.6664C66.1404 26.6664 64.3144 24.8595 64.3144 21.6785C64.3144 18.5959 66.1021 16.7107 68.5164 16.7107C69.6356 16.7107 70.6957 17.1815 71.4423 18.1634V13.333H73.9559ZM58.0243 18.9292C59.5944 18.9292 60.4593 20.206 60.4593 21.6785C60.4593 23.1712 59.5944 24.447 58.0243 24.447C56.4718 24.447 55.6083 23.1712 55.6083 21.6785C55.6083 20.206 56.4718 18.9292 58.0243 18.9292ZM78.93 16.9459V22.6995C78.93 24.0154 79.6176 24.447 80.6778 24.447C81.64 24.447 82.4059 23.917 82.8379 23.367V16.9459H85.332V26.6664H82.8379V25.2329C82.1899 25.9397 81.052 26.6664 79.5009 26.6664C77.4191 26.6664 76.4374 25.5272 76.4374 23.6812V16.9459H78.93ZM100.621 14.3539V16.9459H102.544V19.1259H100.621V23.387C100.621 23.9954 100.934 24.447 101.484 24.447C101.857 24.447 102.212 24.3095 102.348 24.1529L102.879 26.0572C102.506 26.3914 101.838 26.6664 100.797 26.6664C99.049 26.6664 98.1269 25.763 98.1269 24.0545V19.1259H96.5569V16.9459H98.1269V14.3539H100.621ZM112.332 13.333V18.4775H118.518V13.333H121.326V26.6664H118.518V20.9127H112.332V26.6664H109.545V13.333H112.332ZM126.342 16.9459V22.6995C126.342 24.0154 127.029 24.447 128.089 24.447C129.052 24.447 129.818 23.917 130.25 23.367V16.9459H132.744V26.6664H130.25V25.2329C129.602 25.9397 128.464 26.6664 126.913 26.6664C124.831 26.6664 123.849 25.5272 123.849 23.6812V16.9459H126.342ZM149.604 14.3539V16.9459H151.528V19.1259H149.604V23.387C149.604 23.9954 149.918 24.447 150.468 24.447C150.84 24.447 151.195 24.3095 151.333 24.1529L151.862 26.0572C151.49 26.3914 150.821 26.6664 149.78 26.6664C148.033 26.6664 147.11 25.763 147.11 24.0545V19.1259H145.54V16.9459H147.11V14.3539H149.604ZM92.231 16.7107C94.176 16.7107 95.354 17.555 95.983 18.4192L94.3519 19.9502C93.9009 19.2825 93.2129 18.9292 92.3499 18.9292C90.8369 18.9292 89.777 20.0292 89.777 21.6785C89.777 23.3279 90.8369 24.447 92.3499 24.447C93.2129 24.447 93.9009 24.0545 94.3519 23.4062L95.983 24.938C95.354 25.8022 94.176 26.6664 92.231 26.6664C89.325 26.6664 87.205 24.6045 87.205 21.6785C87.205 18.7725 89.325 16.7107 92.231 16.7107ZM141.036 16.7107C143.137 16.7107 144.138 17.8884 144.138 19.7342V26.6664H141.624V20.6969C141.624 19.3809 140.938 18.9292 139.877 18.9292C138.895 18.9292 138.15 19.4792 137.717 20.0292V26.6664H135.224V16.9459H137.717V18.1634C138.326 17.4567 139.504 16.7107 141.036 16.7107ZM69.3013 18.9292C70.1265 18.9292 71.0299 19.3809 71.4423 20.0094V23.367C71.0299 23.9954 70.1265 24.447 69.3013 24.447C67.8689 24.447 66.8871 23.3279 66.8871 21.6785C66.8871 20.0485 67.8689 18.9292 69.3013 18.9292Z" fill="#B4B7C9"/>
<path fill-rule="evenodd" clip-rule="evenodd" d="M15.6001 20L12.2 20.0001V16.4001H15.6001C16.5941 16.4001 17.4001 17.2059 17.4001 18.2C17.4001 19.1941 16.5941 20 15.6001 20ZM15.6001 14H9.80005V26H12.2V22.4001H15.6001C17.9197 22.4001 19.8001 20.5196 19.8001 18.2C19.8001 15.8804 17.9197 14 15.6001 14Z" fill="#B4B7C9" fill-opacity="0.33"/>
</g>
<defs>
<clipPath id="clip0_456_3207">
<rect width="154" height="36" fill="white"/>
</clipPath>
</defs>
</svg>
