<svg width="802" height="123" viewBox="0 0 802 123" fill="none" xmlns="http://www.w3.org/2000/svg">
<g clip-path="url(#clip0_480_15870)">
<path d="M109.368 73.352C109.368 91.9195 74.5952 118.445 63.8961 118.445C53.1969 118.445 18.4246 91.9195 18.4246 73.352C18.4246 46.9831 37.3056 33.5645 63.8961 33.5645C90.4865 33.5645 109.368 46.9831 109.368 73.352Z" fill="#F29D38"/>
<path d="M88.2054 19.1733C92.6468 11.4806 109.45 6.52895 112.668 8.38678C115.885 10.2446 119.473 28.9294 115.031 36.6221C108.724 47.547 99.5601 49.4262 91.5628 44.809C83.5655 40.1917 81.8979 30.0982 88.2054 19.1733Z" fill="#F29D38"/>
<path d="M10.6448 34.8466C6.26166 27.2548 10.321 10.4505 13.4966 8.61701C16.6723 6.78353 34.7844 11.0194 39.1676 18.6112C45.3924 29.3929 43.7854 40.7976 35.8929 45.3543C28.0005 49.911 16.8696 45.6283 10.6448 34.8466Z" fill="#F29D38"/>
<path fill-rule="evenodd" clip-rule="evenodd" d="M64.7636 56.6909C66.0832 56.6909 67.1529 57.9233 67.1529 59.4435L67.1529 97.9801C67.1529 99.5003 66.0832 100.733 64.7636 100.733C63.4441 100.733 62.3744 99.5003 62.3744 97.9801L62.3744 59.4435C62.3744 57.9233 63.4441 56.6909 64.7636 56.6909Z" fill="#90665E"/>
<path d="M75.5153 114.421C75.5153 117.379 70.7016 119.777 64.7636 119.777C58.8257 119.777 54.012 117.379 54.012 114.421C54.012 111.463 58.8257 109.064 64.7636 109.064C70.7016 109.064 75.5153 111.463 75.5153 114.421Z" fill="black"/>
<path d="M92.24 47.7636C92.24 54.0088 79.9384 59.0716 64.7637 59.0716C49.5889 59.0716 37.2873 54.0088 37.2873 47.7636C37.2873 41.5183 49.5889 36.4556 64.7637 36.4556C79.9384 36.4556 92.24 41.5183 92.24 47.7636Z" fill="black"/>
<path fill-rule="evenodd" clip-rule="evenodd" d="M68.3704 38.8568C68.7648 38.9214 69.0182 39.126 68.975 39.3448L67.6948 45.8311H71.5682C72.0992 45.8311 72.619 45.9319 72.9186 46.1805C73.1913 46.4067 73.1717 46.6713 72.9954 46.8654L72.9022 46.9718C72.8953 46.9797 72.8881 46.9874 72.8804 46.995L63.355 56.4488C63.1598 56.6425 62.7349 56.7355 62.3408 56.6707C61.9468 56.606 61.6937 56.4015 61.7369 56.1828L63.0171 49.6965H59.1438C58.6643 49.6965 57.9425 49.6268 57.6757 49.2498C57.5619 49.0891 57.5893 48.9353 57.6387 48.825C57.689 48.7128 57.7773 48.6105 57.866 48.5259C57.9315 48.4634 57.9714 48.4258 57.994 48.4049C57.999 48.4003 58.0041 48.3956 58.0091 48.3911L67.3563 39.0795C67.551 38.8855 67.976 38.7921 68.3704 38.8568Z" fill="white"/>
<path d="M91.1682 27.2392C93.2314 23.6785 99.4861 20.4944 100.504 21.0798C101.521 21.6652 101.881 28.6545 99.8179 32.2152C96.8879 37.2719 93.601 38.8121 91.0719 37.3572C88.5428 35.9024 88.2381 32.296 91.1682 27.2392Z" fill="#90665E"/>
<path d="M24.3208 31.4939C22.2846 27.9799 22.6397 21.0823 23.644 20.5046C24.6483 19.9268 30.821 23.0692 32.8571 26.5833C35.7488 31.5737 35.4481 35.1328 32.9522 36.5686C30.4563 38.0044 27.2125 36.4844 24.3208 31.4939Z" fill="#90665E"/>
<path d="M128.676 64.6958H1.44855V78.9796H6.22705V83.7409H11.6029V88.5022H16.3814V93.2635H45.6497V88.5022H50.4282V83.7409H55.2067V78.9796H60.5825V74.2184H69.5422V78.9796H74.918V83.7409H79.6965V88.5022H84.475V93.2635H114.341V88.5022H119.119V83.7409H123.898V78.9796H128.676V64.6958Z" fill="black"/>
<path d="M26.0461 79.0161L21.1598 79.0161L21.1598 74.2906L26.0461 74.2906L26.0461 79.0161Z" fill="white"/>
<path d="M21.1774 83.7378L16.2911 83.7378L16.2911 79.0123L21.1774 79.0123L21.1774 83.7378Z" fill="white"/>
<path d="M30.9501 83.7378L26.0638 83.7378L26.0638 79.0123L30.9501 79.0123L30.9501 83.7378Z" fill="white"/>
<path d="M84.6993 79.0161L79.813 79.0161L79.813 74.2906L84.6993 74.2906L84.6993 79.0161Z" fill="white"/>
<path d="M94.472 79.0161L89.5857 79.0161L89.5857 74.2906L94.472 74.2906L94.472 79.0161Z" fill="white"/>
<path d="M94.472 88.4648L89.5857 88.4648L89.5857 83.7393L94.472 83.7393L94.472 88.4648Z" fill="white"/>
<path d="M104.245 88.4648L99.3584 88.4648L99.3584 83.7393L104.245 83.7393L104.245 88.4648Z" fill="white"/>
<path d="M35.8362 88.4648L30.9499 88.4648L30.9499 83.7393L35.8362 83.7393L35.8362 88.4648Z" fill="white"/>
<path d="M16.291 79.0161L11.4046 79.0161L11.4046 74.2906L16.291 74.2906L16.291 79.0161Z" fill="white"/>
<path d="M26.0637 88.4648L21.1774 88.4648L21.1774 83.7393L26.0637 83.7393L26.0637 88.4648Z" fill="white"/>
<path d="M89.5856 83.7378L84.6993 83.7378L84.6993 79.0123L89.5856 79.0123L89.5856 83.7378Z" fill="white"/>
<path d="M99.3583 83.7378L94.472 83.7378L94.472 79.0123L99.3583 79.0123L99.3583 83.7378Z" fill="white"/>
<path fill-rule="evenodd" clip-rule="evenodd" d="M119.245 37.979C116.22 43.1987 112.57 46.962 108.491 49.1534C111.259 53.6423 113.161 58.8349 114.083 64.6953H108.448C107.514 59.4457 105.689 54.9148 103.125 51.0756C103.089 51.0826 103.052 51.0894 103.016 51.0962C101.797 49.2639 100.409 47.5784 98.8655 46.0402C104.769 46.5711 110.645 43.2616 115.172 35.4492C119.547 27.8977 115.495 11.1826 112.325 9.3589C109.154 7.53516 92.6002 12.3959 88.2246 19.9474C84.1132 27.0429 83.7867 33.2416 86.3184 37.937C79.9413 35.3662 72.4808 34.0738 64.275 34.0738C54.8274 34.0738 46.3677 35.787 39.412 39.1918C42.8121 34.4235 42.8876 27.7687 38.4059 20.0342C34.1566 12.7007 18.2693 7.93859 14.7817 9.50327C14.6953 9.51536 14.6336 9.52751 14.593 9.53642C14.5649 9.56703 14.5234 9.61438 14.4695 9.68312C11.3661 11.9149 7.56365 28.0006 11.8122 35.3327C16.9252 44.1568 23.7824 47.1599 30.4276 45.3223C25.2128 50.2062 21.6467 56.6704 20.1998 64.6953H15.2887C16.1469 59.2373 17.8562 54.3587 20.3227 50.0882C15.4342 48.1342 11.0809 44.038 7.57056 37.9799C6.04216 35.3421 5.34387 32.0961 5.11845 28.8732C4.89063 25.6164 5.13178 22.1754 5.64475 18.9928C6.15732 15.8126 6.95615 12.7988 7.89457 10.3931C8.36256 9.19344 8.88874 8.08421 9.46797 7.16132C10.0054 6.30508 10.7634 5.32189 11.8041 4.72322C12.8447 4.12454 14.0783 3.96205 15.0912 3.92645C16.183 3.88807 17.4101 3.98864 18.6869 4.18466C21.247 4.57773 24.2659 5.39533 27.2863 6.54312C30.3089 7.69179 33.4202 9.20417 36.1371 11.0292C38.8255 12.8351 41.2977 15.0607 42.8261 17.6984C45.4954 22.3051 46.9349 26.765 47.1436 30.922C52.5603 29.5212 58.4571 28.8315 64.6857 28.8315C69.9619 28.8315 74.9999 29.3264 79.7097 30.3292C80.0194 26.3419 81.4463 22.0863 83.9893 17.6975C85.5177 15.0598 87.9899 12.8342 90.6783 11.0283C93.3952 9.20327 96.5065 7.69089 99.5291 6.54223C102.55 5.39443 105.568 4.57683 108.129 4.18376C109.405 3.98774 110.632 3.88717 111.724 3.92555C112.737 3.96115 113.971 4.12364 115.011 4.72232C116.052 5.32099 116.81 6.30418 117.347 7.16042C117.927 8.08331 118.453 9.19254 118.921 10.3922C119.859 12.7979 120.658 15.8117 121.171 18.9919C121.684 22.1745 121.925 25.6155 121.697 28.8724C121.472 32.0952 120.773 35.3412 119.245 37.979ZM23.111 93.2629C26.518 97.7604 30.6754 102.113 35.0294 106.017C40.3645 110.802 46.0734 114.984 51.203 117.988C53.7671 119.489 56.2274 120.72 58.4555 121.584C60.6378 122.429 62.7929 123 64.6857 123C66.5785 123 68.7336 122.429 70.916 121.584C73.144 120.72 75.6043 119.489 78.1684 117.988C83.298 114.984 89.007 110.802 94.342 106.017C98.696 102.113 102.853 97.7604 106.26 93.2629H99.3342C91.4951 102.481 80.4755 110.86 72.3013 114.884C71.0844 115.502 69.9446 116.017 68.901 116.421C66.979 117.166 65.5726 117.461 64.6857 117.461C64.417 117.461 64.1007 117.434 63.7368 117.375C56.4928 116.833 39.9003 105.826 29.2158 93.2629H23.111Z" fill="url(#paint0_linear_480_15870)"/>
<path fill-rule="evenodd" clip-rule="evenodd" d="M184.647 29.136H163.881L163.755 29.7449V29.4653H159.613V33.5924H162.958L162.116 37.6593H159.613V41.7863H161.261L159.426 50.6445V50.1317H155.284V54.2587H158.677L147.543 108.017H169.072L177.928 66.0588C178.539 63.3125 179.404 60.617 180.524 57.9724C181.746 55.3278 183.222 52.9884 184.952 50.954C186.784 48.9197 188.922 47.2923 191.365 46.0717C193.91 44.7494 196.811 44.0882 200.069 44.0882C202.613 44.0882 204.955 44.8511 207.092 46.3768C209.332 47.9026 210.452 49.8352 210.452 52.1746C210.452 53.2935 210.248 54.8701 209.841 56.9044C209.535 58.9387 209.281 60.5662 209.077 61.7868L201.939 96.0935H196.499V100.221H200.937L201.179 99.746L200.234 104.287H196.499V108.415H200.937V108.017H221.14L230.912 61.7868C231.014 61.0748 231.167 60.1593 231.37 59.0404C231.676 57.8199 231.93 56.5484 232.134 55.2261C232.439 53.9038 232.693 52.6324 232.897 51.4118C233.101 50.0895 233.202 49.0214 233.202 48.2077C233.202 34.0692 225.517 27 210.146 27C198.745 27 189.533 31.3738 182.509 40.1213H182.204L184.647 29.136ZM294.787 108.017H315.553L332.043 29.136H310.361L301.505 71.0938C300.895 73.8401 299.978 76.5355 298.757 79.1801C297.637 81.8248 296.161 84.1642 294.329 86.1985C292.598 88.2328 290.461 89.9112 287.916 91.2335C285.473 92.454 282.623 93.0643 279.365 93.0643C276.82 93.0643 274.428 92.3015 272.189 90.7757C270.051 89.25 268.982 87.3174 268.982 84.9779V82.9945L269.288 80.2482C269.491 79.3327 269.644 78.4681 269.746 77.6544C269.949 76.739 270.153 75.9761 270.356 75.3658L279.976 29.136H258.294L248.522 75.3658C248.318 76.0778 248.064 77.0441 247.758 78.2647C247.555 79.3836 247.3 80.6042 246.995 81.9265L246.384 85.8934C246.282 87.114 246.231 88.1311 246.231 88.9449C246.231 102.982 253.917 110 269.288 110C280.688 110 289.901 105.677 296.925 97.0312H297.23L294.787 108.017ZM368.477 37.6801H384.052L380.693 52.1746H365.271L359.06 82.8419C358.856 83.6556 358.703 84.4185 358.602 85.1305C358.5 85.7408 358.449 86.1985 358.449 86.5037C358.449 87.9277 358.653 89.0466 359.06 89.8603C359.569 90.5723 360.179 91.1317 360.892 91.5386C361.605 91.9455 362.368 92.1998 363.182 92.3015H365.778C368.425 92.3015 371.021 92.1489 373.565 91.8438L369.901 108.474C367.661 108.678 365.422 108.83 363.182 108.932C360.943 109.135 358.653 109.237 356.311 109.237C353.766 109.237 351.222 108.983 348.677 108.474C346.234 108.067 343.994 107.305 341.958 106.186C340.024 104.965 338.446 103.338 337.225 101.303C336.105 99.269 335.596 96.6244 335.698 93.3695C335.698 92.3523 335.8 91.2335 336.003 90.0129C336.207 88.6906 336.462 87.3174 336.767 85.8934L343.741 52.1746H343.543L346.902 37.6801H346.795L349.136 29.136H370.819L368.477 37.6801ZM443.118 44.3934C445.052 46.2243 446.07 48.818 446.171 52.1746H466.327C466.428 47.0888 465.614 42.9185 463.884 39.6636C462.153 36.4087 459.761 33.8658 456.707 32.0349C453.755 30.1023 450.294 28.78 446.324 28.068C442.354 27.356 438.232 27 433.956 27C430.19 27 426.22 27.4577 422.046 28.3732C418.629 29.0561 415.427 30.1689 412.44 31.7116V29.4653H408.298V33.5924H409.175C408.813 33.8274 408.458 34.0699 408.111 34.3199V33.5634H403.969V29.4653H399.827V33.5924H403.969V37.6593H399.827V33.6234H395.685V37.7505H399.827V41.7863H401.284C399.755 44.6524 398.99 48.0643 398.99 52.0221C398.99 55.1752 399.346 57.8199 400.059 59.9559C400.873 62.0919 401.993 63.9228 403.418 65.4485C404.945 66.9743 406.726 68.2457 408.762 69.2629C410.9 70.28 413.343 71.2463 416.091 72.1618L432.735 77.5018C435.076 78.3156 436.959 79.2819 438.384 80.4007C439.809 81.5196 440.522 83.4522 440.522 86.1985C440.522 88.0294 440.115 89.5552 439.3 90.7757C438.486 91.8946 437.417 92.8609 436.094 93.6746C434.771 94.3867 433.295 94.8952 431.666 95.2004C430.037 95.5055 428.408 95.6581 426.78 95.6581C424.947 95.6581 423.064 95.4547 421.13 95.0478C419.298 94.5392 417.618 93.8781 416.091 93.0643C414.666 92.1489 413.496 91.03 412.579 89.7077C411.663 88.3854 411.205 86.8088 411.205 84.9779V82.3842H391.203V85.5882C391.203 90.2672 392.221 94.1832 394.257 97.3364C396.292 100.388 398.888 102.88 402.044 104.813C405.301 106.643 408.915 107.966 412.885 108.779C416.855 109.593 420.774 110 424.642 110C429.223 110 433.753 109.542 438.232 108.627C442.71 107.711 446.731 106.186 450.294 104.05C453.857 101.914 456.707 99.1673 458.845 95.8107C461.084 92.3523 462.204 88.182 462.204 83.2996C462.204 80.0447 461.644 77.1967 460.524 74.7555C459.506 72.3143 458.03 70.2292 456.096 68.5C454.264 66.6691 452.076 65.1434 449.531 63.9228C447.088 62.7022 444.39 61.6342 441.438 60.7187L430.597 57.2096C426.932 56.0907 424.337 54.921 422.81 53.7004C421.385 52.4798 420.672 51.0049 420.672 49.2757C420.672 46.4277 421.894 44.4442 424.337 43.3254C426.882 42.1048 430.088 41.4945 433.956 41.4945C438.232 41.4945 441.285 42.4608 443.118 44.3934ZM403.969 38.0477C404.076 37.9276 404.184 37.8085 404.293 37.6905H403.969V38.0477ZM507.202 38.5956H522.777L519.418 53.0901H503.996L497.752 82.8419C497.548 83.6556 497.395 84.4185 497.294 85.1305C497.192 85.7408 497.141 86.1985 497.141 86.5037C497.141 87.9277 497.345 89.0466 497.752 89.8603C498.261 90.5723 498.871 91.1317 499.584 91.5386C500.297 91.9455 501.06 92.1998 501.874 92.3015H504.47C507.117 92.3015 509.712 92.1489 512.257 91.8438L508.593 108.474C506.353 108.678 504.114 108.83 501.874 108.932C499.635 109.135 497.345 109.237 495.003 109.237C492.458 109.237 489.914 108.983 487.369 108.474C484.926 108.067 482.686 107.305 480.65 106.186C478.716 104.965 477.138 103.338 475.917 101.303C474.797 99.269 474.288 96.6244 474.39 93.3695C474.39 92.3523 474.492 91.2335 474.695 90.0129C474.899 88.6906 475.153 87.3174 475.459 85.8934L482.466 53.0901H482.184L485.543 38.5956H485.52L487.861 30.0515H509.544L507.202 38.5956ZM541.858 40.7316C539.517 43.9865 537.99 48.106 537.278 53.0901H557.586C558.298 49.1232 560.181 46.2243 563.235 44.3934C566.289 42.4608 569.75 41.4945 573.618 41.4945C575.043 41.4945 576.519 41.6471 578.046 41.9522C579.675 42.1556 581.151 42.6134 582.474 43.3254C583.899 44.0374 585.07 45.0037 585.986 46.2243C586.902 47.4449 587.36 49.0723 587.36 51.1066C587.36 53.6495 586.749 55.5821 585.528 56.9044C584.306 58.125 582.423 59.0913 579.878 59.8033C577.435 60.4136 574.331 60.8713 570.564 61.1765C566.798 61.4816 562.37 61.9393 557.28 62.5496C547.712 63.6685 540.281 66.5165 534.987 71.0938C529.796 75.671 527.2 81.7739 527.2 89.4026C527.2 92.1489 527.709 94.7935 528.727 97.3364C529.745 99.7776 531.323 101.964 533.46 103.897C535.598 105.728 538.245 107.203 541.4 108.322C544.658 109.441 548.424 110 552.699 110C557.28 110 561.708 109.237 565.984 107.711C570.259 106.084 573.873 103.592 576.825 100.235V108.017H598.507C597.998 106.287 597.743 104.762 597.743 103.439C597.743 101.914 597.794 100.134 597.896 98.0993C598.1 95.9632 598.405 94.1832 598.812 92.7592L605.836 61.0239C606.956 55.9381 607.515 51.5135 607.515 47.75C607.617 43.2745 606.599 39.7145 604.462 37.0699C602.426 34.3235 599.779 32.2384 596.522 30.8143C593.264 29.2886 589.701 28.2714 585.833 27.7629C581.965 27.2543 578.25 27 574.687 27C570.208 27 565.882 27.4577 561.708 28.3732C557.535 29.1869 553.768 30.6109 550.409 32.6452C547.05 34.6795 544.2 37.375 541.858 40.7316ZM574.229 73.2298C577.384 72.8229 580.336 71.8058 583.085 70.1783L580.947 77.807C580.336 79.943 579.573 82.079 578.657 84.2151C577.741 86.3511 576.468 88.2837 574.84 90.0129C573.313 91.6403 571.379 93.0135 569.037 94.1324C566.798 95.1495 563.999 95.6581 560.639 95.6581C557.484 95.6581 554.684 94.9461 552.241 93.5221C549.9 91.9963 548.73 89.7586 548.73 86.8088C548.73 84.3676 549.188 82.3842 550.104 80.8585C551.02 79.231 552.19 77.9595 553.616 77.0441C555.142 76.1287 556.873 75.4675 558.807 75.0607C560.741 74.5521 562.726 74.1961 564.762 73.9926C567.918 73.7892 571.073 73.5349 574.229 73.2298ZM669.541 52.1746C669.439 48.818 668.421 46.2243 666.487 44.3934C664.655 42.4608 661.601 41.4945 657.326 41.4945C653.458 41.4945 650.251 42.1048 647.706 43.3254C645.263 44.4442 644.042 46.4277 644.042 49.2757C644.042 51.0049 644.754 52.4798 646.18 53.7004C647.706 54.921 650.302 56.0907 653.967 57.2096L664.808 60.7187C667.76 61.6342 670.457 62.7022 672.9 63.9228C675.445 65.1434 677.634 66.6691 679.466 68.5C681.4 70.2292 682.876 72.3143 683.894 74.7555C685.014 77.1967 685.574 80.0447 685.574 83.2996C685.574 88.182 684.454 92.3523 682.215 95.8107C680.077 99.1673 677.227 101.914 673.664 104.05C670.101 106.186 666.08 107.711 661.601 108.627C657.122 109.542 652.593 110 648.012 110C644.144 110 640.225 109.593 636.255 108.779C632.285 107.966 628.671 106.643 625.414 104.813C622.258 102.88 619.662 100.388 617.626 97.3364C615.59 94.1832 614.573 90.2672 614.573 85.5882V82.3842H634.575V84.9779C634.575 86.8088 635.033 88.3854 635.949 89.7077C636.865 91.03 638.036 92.1489 639.461 93.0643C640.988 93.8781 642.668 94.5392 644.5 95.0478C646.434 95.4547 648.317 95.6581 650.15 95.6581C651.778 95.6581 653.407 95.5055 655.036 95.2004C656.664 94.8952 658.14 94.3867 659.464 93.6746C660.787 92.8609 661.856 91.8946 662.67 90.7757C663.485 89.5552 663.892 88.0294 663.892 86.1985C663.892 83.4522 663.179 81.5196 661.754 80.4007C660.329 79.2819 658.446 78.3156 656.104 77.5018L639.461 72.1618C636.713 71.2463 634.27 70.28 632.132 69.2629C630.096 68.2457 628.315 66.9743 626.788 65.4485C625.363 63.9228 624.243 62.0919 623.429 59.9559C622.716 57.8199 622.36 55.1752 622.36 52.0221C622.36 47.3431 623.429 43.4271 625.566 40.2739C627.806 37.1207 630.656 34.5778 634.117 32.6452C637.578 30.6109 641.344 29.1869 645.416 28.3732C649.59 27.4577 653.56 27 657.326 27C661.601 27 665.724 27.356 669.694 28.068C673.664 28.78 677.125 30.1023 680.077 32.0349C683.131 33.8658 685.523 36.4087 687.253 39.6636C688.984 42.9185 689.798 47.0888 689.696 52.1746H669.541ZM730.771 30.0346H710.824L711.147 29.4238H704.827V33.5509H708.376L707.553 37.6179H704.827L704.827 33.582H700.685V37.7091H704.827V41.745H706.717L693.293 108.017H714.822L720.269 81.757C720.88 79.0107 721.745 76.3152 722.865 73.6706C724.086 71.026 725.562 68.6866 727.293 66.6522C729.125 64.6179 731.263 62.9905 733.706 61.7699C736.251 60.4476 739.152 59.7864 742.409 59.7864C744.954 59.7864 747.295 60.5493 749.433 62.075C751.672 63.6008 752.792 65.5334 752.792 67.8728C752.792 68.9917 752.588 70.5683 752.181 72.6026C751.876 74.6369 751.621 76.2644 751.418 77.485L747.717 95.6819H742.619V99.8089H746.877L746.05 103.876H742.619V108.003H745.211L745.208 108.017H766.89L773.253 77.485C773.354 76.7729 773.507 75.8575 773.711 74.7386C774.016 73.5181 774.271 72.2466 774.474 70.9243C774.78 69.602 775.034 68.3305 775.238 67.11C775.441 65.7877 775.543 64.7196 775.543 63.9059C775.543 49.7674 767.858 42.6982 752.487 42.6982C748.924 42.6982 745.717 43.1051 742.867 43.9188C740.017 44.6308 737.523 45.5462 735.385 46.6651C733.248 47.784 731.415 49.0046 729.888 50.3269C728.362 51.6492 727.191 52.8698 726.376 53.9886H726.071L730.771 30.0346ZM151.142 33.5924H155.284V37.6593H151.142V33.6234H147V37.7505H151.142V41.7863H155.284V37.6905H159.426V33.5634H155.284V29.4653H151.142V33.5924ZM159.519 45.8796H155.377V41.7526H159.519V45.8796ZM391.543 33.5924H395.685V29.4653H391.543V33.5924ZM191.961 92.0002H196.399V96.1272H191.961V92.0002ZM187.423 104.287H191.861V108.415H187.423V104.287ZM196.299 100.189H191.861V104.316H196.299L196.299 100.189ZM182.694 100.189H187.132V104.316H182.694V100.189ZM733.543 103.876H737.981L737.981 99.7778H742.419V103.905H737.981L737.981 108.003H733.543V103.876ZM696.543 33.5509H700.685V29.4238H696.543V33.5509Z" fill="url(#paint1_linear_480_15870)"/>
</g>
<defs>
<linearGradient id="paint0_linear_480_15870" x1="63.4077" y1="3.91748" x2="63.4077" y2="123" gradientUnits="userSpaceOnUse">
<stop stop-color="#D926AA"/>
<stop offset="1" stop-color="#5C2EDD"/>
</linearGradient>
<linearGradient id="paint1_linear_480_15870" x1="461.271" y1="27" x2="461.271" y2="110" gradientUnits="userSpaceOnUse">
<stop stop-color="#D926AA"/>
<stop offset="1" stop-color="#5C2EDD"/>
</linearGradient>
<clipPath id="clip0_480_15870">
<rect width="802" height="123" fill="white"/>
</clipPath>
</defs>
</svg>
