<svg width="802" height="123" viewBox="0 0 802 123" fill="none" xmlns="http://www.w3.org/2000/svg">
<g clip-path="url(#clip0_480_15948)">
<path d="M109.368 73.352C109.368 91.9195 74.5952 118.445 63.8961 118.445C53.1969 118.445 18.4246 91.9195 18.4246 73.352C18.4246 46.9831 37.3056 33.5645 63.8961 33.5645C90.4865 33.5645 109.368 46.9831 109.368 73.352Z" fill="#F29D38"/>
<path d="M88.2054 19.1733C92.6468 11.4806 109.45 6.52895 112.668 8.38678C115.885 10.2446 119.473 28.9294 115.031 36.6221C108.724 47.547 99.5601 49.4262 91.5628 44.809C83.5655 40.1917 81.8979 30.0982 88.2054 19.1733Z" fill="#F29D38"/>
<path d="M10.6448 34.8466C6.26166 27.2548 10.321 10.4505 13.4966 8.61701C16.6723 6.78353 34.7844 11.0194 39.1676 18.6112C45.3924 29.3929 43.7854 40.7976 35.8929 45.3543C28.0005 49.911 16.8696 45.6283 10.6448 34.8466Z" fill="#F29D38"/>
<path fill-rule="evenodd" clip-rule="evenodd" d="M64.7636 56.6909C66.0832 56.6909 67.1529 57.9233 67.1529 59.4435L67.1529 97.9801C67.1529 99.5003 66.0832 100.733 64.7636 100.733C63.4441 100.733 62.3744 99.5003 62.3744 97.9801L62.3744 59.4435C62.3744 57.9233 63.4441 56.6909 64.7636 56.6909Z" fill="#90665E"/>
<path d="M75.5153 114.421C75.5153 117.379 70.7016 119.777 64.7636 119.777C58.8257 119.777 54.012 117.379 54.012 114.421C54.012 111.463 58.8257 109.064 64.7636 109.064C70.7016 109.064 75.5153 111.463 75.5153 114.421Z" fill="black"/>
<path d="M92.24 47.7636C92.24 54.0088 79.9384 59.0716 64.7637 59.0716C49.5889 59.0716 37.2873 54.0088 37.2873 47.7636C37.2873 41.5183 49.5889 36.4556 64.7637 36.4556C79.9384 36.4556 92.24 41.5183 92.24 47.7636Z" fill="black"/>
<path fill-rule="evenodd" clip-rule="evenodd" d="M68.3704 38.8568C68.7648 38.9214 69.0182 39.126 68.975 39.3448L67.6948 45.8311H71.5682C72.0992 45.8311 72.619 45.9319 72.9186 46.1805C73.1913 46.4067 73.1717 46.6713 72.9954 46.8654L72.9022 46.9718C72.8953 46.9797 72.8881 46.9874 72.8804 46.995L63.355 56.4488C63.1598 56.6425 62.7349 56.7355 62.3408 56.6707C61.9468 56.606 61.6937 56.4015 61.7369 56.1828L63.0171 49.6965H59.1438C58.6643 49.6965 57.9425 49.6268 57.6757 49.2498C57.5619 49.0891 57.5893 48.9353 57.6387 48.825C57.689 48.7128 57.7773 48.6105 57.866 48.5259C57.9315 48.4634 57.9714 48.4258 57.994 48.4049C57.999 48.4003 58.0041 48.3956 58.0091 48.3911L67.3563 39.0795C67.551 38.8855 67.976 38.7921 68.3704 38.8568Z" fill="white"/>
<path d="M91.1682 27.2392C93.2314 23.6785 99.4861 20.4944 100.504 21.0798C101.521 21.6652 101.881 28.6545 99.8179 32.2152C96.8879 37.2719 93.601 38.8121 91.0719 37.3572C88.5428 35.9024 88.2381 32.296 91.1682 27.2392Z" fill="#90665E"/>
<path d="M24.3208 31.4939C22.2846 27.9799 22.6397 21.0823 23.644 20.5046C24.6483 19.9268 30.821 23.0692 32.8571 26.5833C35.7488 31.5737 35.4481 35.1328 32.9522 36.5686C30.4563 38.0044 27.2125 36.4844 24.3208 31.4939Z" fill="#90665E"/>
<path d="M128.676 64.6958H1.44855V78.9796H6.22705V83.7409H11.6029V88.5022H16.3814V93.2635H45.6497V88.5022H50.4282V83.7409H55.2067V78.9796H60.5825V74.2184H69.5422V78.9796H74.918V83.7409H79.6965V88.5022H84.475V93.2635H114.341V88.5022H119.119V83.7409H123.898V78.9796H128.676V64.6958Z" fill="black"/>
<path d="M26.0461 79.0161L21.1598 79.0161L21.1598 74.2906L26.0461 74.2906L26.0461 79.0161Z" fill="white"/>
<path d="M21.1774 83.7378L16.2911 83.7378L16.2911 79.0123L21.1774 79.0123L21.1774 83.7378Z" fill="white"/>
<path d="M30.9501 83.7378L26.0638 83.7378L26.0638 79.0123L30.9501 79.0123L30.9501 83.7378Z" fill="white"/>
<path d="M84.6993 79.0161L79.813 79.0161L79.813 74.2906L84.6993 74.2906L84.6993 79.0161Z" fill="white"/>
<path d="M94.472 79.0161L89.5857 79.0161L89.5857 74.2906L94.472 74.2906L94.472 79.0161Z" fill="white"/>
<path d="M94.472 88.4648L89.5857 88.4648L89.5857 83.7393L94.472 83.7393L94.472 88.4648Z" fill="white"/>
<path d="M104.245 88.4648L99.3584 88.4648L99.3584 83.7393L104.245 83.7393L104.245 88.4648Z" fill="white"/>
<path d="M35.8362 88.4648L30.9499 88.4648L30.9499 83.7393L35.8362 83.7393L35.8362 88.4648Z" fill="white"/>
<path d="M16.291 79.0161L11.4046 79.0161L11.4046 74.2906L16.291 74.2906L16.291 79.0161Z" fill="white"/>
<path d="M26.0637 88.4648L21.1774 88.4648L21.1774 83.7393L26.0637 83.7393L26.0637 88.4648Z" fill="white"/>
<path d="M89.5856 83.7378L84.6993 83.7378L84.6993 79.0123L89.5856 79.0123L89.5856 83.7378Z" fill="white"/>
<path d="M99.3583 83.7378L94.472 83.7378L94.472 79.0123L99.3583 79.0123L99.3583 83.7378Z" fill="white"/>
<path fill-rule="evenodd" clip-rule="evenodd" d="M119.245 37.979C116.22 43.1987 112.57 46.962 108.491 49.1534C111.259 53.6423 113.161 58.8349 114.083 64.6953H108.448C107.514 59.4457 105.689 54.9148 103.125 51.0756C103.089 51.0826 103.052 51.0894 103.016 51.0962C101.797 49.2639 100.409 47.5784 98.8655 46.0402C104.769 46.5711 110.645 43.2616 115.172 35.4492C119.547 27.8977 115.495 11.1826 112.325 9.3589C109.154 7.53516 92.6002 12.3959 88.2246 19.9474C84.1132 27.0429 83.7867 33.2416 86.3184 37.937C79.9413 35.3662 72.4808 34.0738 64.275 34.0738C54.8274 34.0738 46.3677 35.787 39.412 39.1918C42.8121 34.4235 42.8876 27.7687 38.4059 20.0342C34.1566 12.7007 18.2693 7.93859 14.7817 9.50327C14.6953 9.51536 14.6336 9.52751 14.593 9.53642C14.5649 9.56703 14.5234 9.61438 14.4695 9.68312C11.3661 11.9149 7.56365 28.0006 11.8122 35.3327C16.9252 44.1568 23.7824 47.1599 30.4276 45.3223C25.2128 50.2062 21.6467 56.6704 20.1998 64.6953H15.2887C16.1469 59.2373 17.8562 54.3587 20.3227 50.0882C15.4342 48.1342 11.0809 44.038 7.57056 37.9799C6.04216 35.3421 5.34387 32.0961 5.11845 28.8732C4.89063 25.6164 5.13178 22.1754 5.64475 18.9928C6.15732 15.8126 6.95615 12.7988 7.89457 10.3931C8.36256 9.19344 8.88874 8.08421 9.46797 7.16132C10.0054 6.30508 10.7634 5.32189 11.8041 4.72322C12.8447 4.12454 14.0783 3.96205 15.0912 3.92645C16.183 3.88807 17.4101 3.98864 18.6869 4.18466C21.247 4.57773 24.2659 5.39533 27.2863 6.54312C30.3089 7.69179 33.4202 9.20417 36.1371 11.0292C38.8255 12.8351 41.2977 15.0607 42.8261 17.6984C45.4954 22.3051 46.9349 26.765 47.1436 30.922C52.5603 29.5212 58.4571 28.8315 64.6857 28.8315C69.9619 28.8315 74.9999 29.3264 79.7097 30.3292C80.0194 26.3419 81.4463 22.0863 83.9893 17.6975C85.5177 15.0598 87.9899 12.8342 90.6783 11.0283C93.3952 9.20327 96.5065 7.69089 99.5291 6.54223C102.55 5.39443 105.568 4.57683 108.129 4.18376C109.405 3.98774 110.632 3.88717 111.724 3.92555C112.737 3.96115 113.971 4.12364 115.011 4.72232C116.052 5.32099 116.81 6.30418 117.347 7.16042C117.927 8.08331 118.453 9.19254 118.921 10.3922C119.859 12.7979 120.658 15.8117 121.171 18.9919C121.684 22.1745 121.925 25.6155 121.697 28.8724C121.472 32.0952 120.773 35.3412 119.245 37.979ZM23.111 93.2629C26.518 97.7604 30.6754 102.113 35.0294 106.017C40.3645 110.802 46.0734 114.984 51.203 117.988C53.7671 119.489 56.2274 120.72 58.4555 121.584C60.6378 122.429 62.7929 123 64.6857 123C66.5785 123 68.7336 122.429 70.916 121.584C73.144 120.72 75.6043 119.489 78.1684 117.988C83.298 114.984 89.007 110.802 94.342 106.017C98.696 102.113 102.853 97.7604 106.26 93.2629H99.3342C91.4951 102.481 80.4755 110.86 72.3013 114.884C71.0844 115.502 69.9446 116.017 68.901 116.421C66.979 117.166 65.5726 117.461 64.6857 117.461C64.417 117.461 64.1007 117.434 63.7368 117.375C56.4928 116.833 39.9003 105.826 29.2158 93.2629H23.111Z" fill="white"/>
<path d="M159.519 45.8799L155.377 45.8799L155.377 41.7528L159.519 41.7528L159.519 45.8799Z" fill="white"/>
<path d="M163.755 33.5923L159.613 33.5923L159.613 29.4652L163.755 29.4652L163.755 33.5923Z" fill="white"/>
<path d="M155.284 33.5923L151.142 33.5923L151.142 29.4652L155.284 29.4652L155.284 33.5923Z" fill="white"/>
<path d="M159.426 37.6904L155.284 37.6904L155.284 33.5634L159.426 33.5634L159.426 37.6904Z" fill="white"/>
<path d="M159.426 54.2588L155.284 54.2588L155.284 50.1317L159.426 50.1317L159.426 54.2588Z" fill="white"/>
<path d="M162.764 41.7861L159.613 41.7861L159.613 37.6591L163.755 37.6591L162.764 41.7861Z" fill="white"/>
<path d="M155.284 41.7861L151.142 41.7861L151.142 37.6591L155.284 37.6591L155.284 41.7861Z" fill="white"/>
<path d="M151.142 37.7505L147 37.7505L147 33.6234L151.142 33.6234L151.142 37.7505Z" fill="white"/>
<path d="M408.204 45.8799L404.062 45.8799L404.062 41.7528L408.204 41.7528L408.204 45.8799Z" fill="white"/>
<path d="M403.979 50.146L399.837 50.146L399.837 46.0189L403.979 46.0189L403.979 50.146Z" fill="white"/>
<path d="M412.44 33.5923L408.298 33.5923L408.298 29.4652L412.44 29.4652L412.44 33.5923Z" fill="white"/>
<path d="M403.969 33.5923L399.827 33.5923L399.827 29.4652L403.969 29.4652L403.969 33.5923Z" fill="white"/>
<path d="M395.685 33.5923L391.543 33.5923L391.543 29.4652L395.685 29.4652L395.685 33.5923Z" fill="white"/>
<path d="M408.111 37.6904L403.969 37.6904L403.969 33.5634L408.111 33.5634L408.111 37.6904Z" fill="white"/>
<path d="M408.111 54.2588L403.969 54.2588L403.969 50.1317L408.111 50.1317L408.111 54.2588Z" fill="white"/>
<path d="M411.449 41.7861L408.298 41.7861L408.298 37.6591L412.44 37.6591L411.449 41.7861Z" fill="white"/>
<path d="M403.969 41.7861L399.827 41.7861L399.827 37.6591L403.969 37.6591L403.969 41.7861Z" fill="white"/>
<path d="M399.827 37.7505L395.685 37.7505L395.685 33.6234L399.827 33.6234L399.827 37.7505Z" fill="white"/>
<path d="M196.399 91.5884L191.961 91.5884L191.961 95.7154L196.399 95.7154L196.399 91.5884Z" fill="white"/>
<path d="M200.937 103.876L196.499 103.876L196.499 108.003L200.937 108.003L200.937 103.876Z" fill="white"/>
<path d="M191.861 103.876L187.423 103.876L187.423 108.003L191.861 108.003L191.861 103.876Z" fill="white"/>
<path d="M196.299 99.7778L191.861 99.7778L191.861 103.905L196.299 103.905L196.299 99.7778Z" fill="white"/>
<path d="M187.132 99.7778L182.694 99.7778L182.694 103.905L187.132 103.905L187.132 99.7778Z" fill="white"/>
<path d="M203.043 95.6821L196.499 95.6821L196.499 99.8092L200.937 99.8092L203.043 95.6821Z" fill="white"/>
<path d="M163.881 29.136H184.647L182.204 40.1213H182.509C189.533 31.3738 198.745 27 210.146 27C225.517 27 233.202 34.0692 233.202 48.2077C233.202 49.0214 233.101 50.0895 232.897 51.4118C232.694 52.6323 232.439 53.9038 232.134 55.2261C231.93 56.5484 231.676 57.8199 231.37 59.0404C231.167 60.1593 231.014 61.0748 230.912 61.7868L221.14 108.017H199.458L209.077 61.7868C209.281 60.5662 209.535 58.9387 209.841 56.9044C210.248 54.8701 210.452 53.2935 210.452 52.1746C210.452 49.8352 209.332 47.9026 207.092 46.3768C204.955 44.8511 202.613 44.0882 200.069 44.0882C196.811 44.0882 193.91 44.7494 191.365 46.0717C188.922 47.2923 186.784 48.9197 184.952 50.954C183.222 52.9884 181.746 55.3278 180.524 57.9724C179.404 60.617 178.539 63.3125 177.928 66.0588L169.072 108.017H147.543L163.881 29.136Z" fill="white"/>
<path d="M315.553 108.017H294.787L297.23 97.0312H296.925C289.901 105.677 280.688 110 269.288 110C253.917 110 246.231 102.982 246.231 88.9449C246.231 88.1311 246.282 87.114 246.384 85.8934C246.588 84.5711 246.791 83.2488 246.995 81.9265C247.3 80.6042 247.555 79.3836 247.758 78.2647C248.064 77.0441 248.318 76.0778 248.522 75.3658L258.294 29.136H279.976L270.356 75.3658C270.153 75.9761 269.949 76.739 269.746 77.6544C269.644 78.4681 269.491 79.3327 269.288 80.2482C269.186 81.1636 269.084 82.079 268.982 82.9945C268.982 83.8082 268.982 84.4694 268.982 84.9779C268.982 87.3174 270.051 89.25 272.189 90.7757C274.428 92.3015 276.82 93.0643 279.365 93.0643C282.623 93.0643 285.473 92.454 287.916 91.2335C290.461 89.9112 292.598 88.2328 294.329 86.1985C296.161 84.1642 297.637 81.8248 298.757 79.1801C299.978 76.5355 300.895 73.8401 301.505 71.0938L310.361 29.136H332.043L315.553 108.017Z" fill="white"/>
<path d="M368.477 37.6801H384.052L380.693 52.1746H365.271L359.06 82.8419C358.856 83.6556 358.703 84.4185 358.602 85.1305C358.5 85.7408 358.449 86.1985 358.449 86.5037C358.449 87.9277 358.653 89.0466 359.06 89.8603C359.569 90.5723 360.179 91.1317 360.892 91.5386C361.605 91.9455 362.368 92.1998 363.182 92.3015C364.099 92.3015 364.964 92.3015 365.778 92.3015C368.425 92.3015 371.021 92.1489 373.565 91.8438L369.901 108.474C367.661 108.678 365.422 108.83 363.182 108.932C360.943 109.135 358.653 109.237 356.311 109.237C353.766 109.237 351.222 108.983 348.677 108.474C346.234 108.067 343.994 107.305 341.958 106.186C340.024 104.965 338.446 103.338 337.225 101.303C336.105 99.269 335.596 96.6244 335.698 93.3695C335.698 92.3523 335.8 91.2335 336.003 90.0129C336.207 88.6906 336.462 87.3174 336.767 85.8934L343.741 52.1746H343.543L346.902 37.6801H346.795L349.136 29.136H370.819L368.477 37.6801Z" fill="white"/>
<path d="M446.171 52.1746C446.07 48.818 445.052 46.2243 443.118 44.3934C441.285 42.4608 438.232 41.4945 433.956 41.4945C430.088 41.4945 426.882 42.1048 424.337 43.3254C421.894 44.4442 420.672 46.4277 420.672 49.2757C420.672 51.0049 421.385 52.4798 422.81 53.7004C424.337 54.921 426.932 56.0907 430.597 57.2096L441.438 60.7187C444.39 61.6342 447.088 62.7022 449.531 63.9228C452.075 65.1434 454.264 66.6691 456.096 68.5C458.03 70.2292 459.506 72.3143 460.524 74.7555C461.644 77.1967 462.204 80.0447 462.204 83.2996C462.204 88.182 461.084 92.3523 458.845 95.8107C456.707 99.1673 453.857 101.914 450.294 104.05C446.731 106.186 442.71 107.711 438.232 108.627C433.753 109.542 429.223 110 424.642 110C420.774 110 416.855 109.593 412.885 108.779C408.915 107.966 405.301 106.643 402.044 104.813C398.888 102.88 396.292 100.388 394.257 97.3364C392.221 94.1832 391.203 90.2672 391.203 85.5882V82.3842H411.205V84.9779C411.205 86.8088 411.663 88.3854 412.579 89.7077C413.496 91.03 414.666 92.1489 416.091 93.0643C417.618 93.8781 419.298 94.5392 421.13 95.0478C423.064 95.4547 424.947 95.6581 426.78 95.6581C428.408 95.6581 430.037 95.5055 431.666 95.2004C433.295 94.8952 434.771 94.3866 436.094 93.6746C437.417 92.8609 438.486 91.8946 439.3 90.7757C440.115 89.5552 440.522 88.0294 440.522 86.1985C440.522 83.4522 439.809 81.5196 438.384 80.4007C436.959 79.2819 435.076 78.3156 432.735 77.5018L416.091 72.1618C413.343 71.2463 410.9 70.28 408.762 69.2629C406.726 68.2457 404.945 66.9743 403.418 65.4485C401.993 63.9228 400.873 62.0919 400.059 59.9559C399.346 57.8199 398.99 55.1752 398.99 52.0221C398.99 47.3431 400.059 43.4271 402.197 40.2739C404.436 37.1207 407.286 34.5778 410.747 32.6452C414.208 30.6109 417.975 29.1869 422.046 28.3732C426.22 27.4577 430.19 27 433.956 27C438.232 27 442.354 27.356 446.324 28.068C450.294 28.78 453.755 30.1023 456.707 32.0349C459.761 33.8658 462.153 36.4087 463.884 39.6636C465.614 42.9185 466.428 47.0888 466.327 52.1746H446.171Z" fill="white"/>
<path d="M507.202 38.5956H522.777L519.418 53.0901H503.996L497.752 82.8419C497.548 83.6556 497.395 84.4185 497.294 85.1305C497.192 85.7408 497.141 86.1985 497.141 86.5037C497.141 87.9277 497.345 89.0466 497.752 89.8603C498.261 90.5723 498.871 91.1317 499.584 91.5386C500.297 91.9455 501.06 92.1998 501.874 92.3015C502.79 92.3015 503.656 92.3015 504.47 92.3015C507.117 92.3015 509.712 92.1489 512.257 91.8438L508.593 108.474C506.353 108.678 504.114 108.83 501.874 108.932C499.635 109.135 497.345 109.237 495.003 109.237C492.458 109.237 489.914 108.983 487.369 108.474C484.926 108.067 482.686 107.305 480.65 106.186C478.716 104.965 477.138 103.338 475.917 101.303C474.797 99.269 474.288 96.6244 474.39 93.3695C474.39 92.3523 474.492 91.2335 474.695 90.0129C474.899 88.6906 475.153 87.3174 475.459 85.8934L482.466 53.0901H482.184L485.543 38.5956H485.52L487.861 30.0515H509.544L507.202 38.5956Z" fill="white"/>
<path d="M537.278 53.0901C537.99 48.106 539.517 43.9865 541.858 40.7316C544.2 37.375 547.05 34.6795 550.409 32.6452C553.768 30.6109 557.535 29.1869 561.708 28.3732C565.882 27.4577 570.208 27 574.687 27C578.25 27 581.965 27.2543 585.833 27.7629C589.701 28.2714 593.264 29.2886 596.522 30.8143C599.779 32.2384 602.426 34.3235 604.462 37.0699C606.599 39.7145 607.617 43.2745 607.515 47.75C607.515 51.5135 606.956 55.9381 605.836 61.0239L598.812 92.7592C598.405 94.1832 598.099 95.9632 597.896 98.0993C597.794 100.134 597.743 101.914 597.743 103.439C597.743 104.762 597.998 106.287 598.507 108.017H576.825V100.235C573.873 103.592 570.259 106.084 565.984 107.711C561.708 109.237 557.28 110 552.699 110C548.424 110 544.658 109.441 541.4 108.322C538.245 107.203 535.598 105.728 533.46 103.897C531.323 101.964 529.745 99.7776 528.727 97.3364C527.709 94.7935 527.2 92.1489 527.2 89.4026C527.2 81.7739 529.796 75.671 534.987 71.0938C540.281 66.5165 547.712 63.6685 557.28 62.5496C562.37 61.9393 566.798 61.4816 570.564 61.1765C574.331 60.8713 577.435 60.4136 579.878 59.8033C582.423 59.0913 584.306 58.125 585.528 56.9044C586.749 55.5821 587.36 53.6495 587.36 51.1066C587.36 49.0723 586.902 47.4448 585.986 46.2243C585.07 45.0037 583.899 44.0374 582.474 43.3254C581.151 42.6134 579.675 42.1556 578.046 41.9522C576.519 41.6471 575.043 41.4945 573.618 41.4945C569.75 41.4945 566.289 42.4608 563.235 44.3934C560.181 46.2243 558.298 49.1232 557.586 53.0901H537.278ZM583.085 70.1783C580.336 71.8058 577.384 72.8229 574.229 73.2298C571.073 73.5349 567.918 73.7892 564.762 73.9926C562.726 74.1961 560.741 74.5521 558.807 75.0607C556.873 75.4675 555.143 76.1287 553.616 77.0441C552.19 77.9596 551.02 79.231 550.104 80.8585C549.188 82.3842 548.729 84.3676 548.729 86.8088C548.729 89.7586 549.9 91.9963 552.241 93.5221C554.684 94.9461 557.484 95.6581 560.639 95.6581C563.999 95.6581 566.798 95.1495 569.037 94.1324C571.379 93.0135 573.313 91.6403 574.84 90.0129C576.468 88.2837 577.741 86.3511 578.657 84.2151C579.573 82.079 580.336 79.943 580.947 77.807L583.085 70.1783Z" fill="white"/>
<path d="M669.541 52.1746C669.439 48.818 668.422 46.2243 666.487 44.3934C664.655 42.4608 661.601 41.4945 657.326 41.4945C653.458 41.4945 650.251 42.1048 647.706 43.3254C645.263 44.4442 644.042 46.4277 644.042 49.2757C644.042 51.0049 644.754 52.4798 646.18 53.7004C647.706 54.921 650.302 56.0907 653.967 57.2096L664.808 60.7187C667.76 61.6342 670.457 62.7022 672.9 63.9228C675.445 65.1434 677.634 66.6691 679.466 68.5C681.4 70.2292 682.876 72.3143 683.894 74.7555C685.014 77.1967 685.574 80.0447 685.574 83.2996C685.574 88.182 684.454 92.3523 682.215 95.8107C680.077 99.1673 677.227 101.914 673.664 104.05C670.101 106.186 666.08 107.711 661.601 108.627C657.122 109.542 652.593 110 648.012 110C644.144 110 640.225 109.593 636.255 108.779C632.285 107.966 628.671 106.643 625.414 104.813C622.258 102.88 619.662 100.388 617.626 97.3364C615.59 94.1832 614.573 90.2672 614.573 85.5882V82.3842H634.575V84.9779C634.575 86.8088 635.033 88.3854 635.949 89.7077C636.865 91.03 638.036 92.1489 639.461 93.0643C640.988 93.8781 642.668 94.5392 644.5 95.0478C646.434 95.4547 648.317 95.6581 650.15 95.6581C651.778 95.6581 653.407 95.5055 655.036 95.2004C656.664 94.8952 658.14 94.3866 659.464 93.6746C660.787 92.8609 661.856 91.8946 662.67 90.7757C663.485 89.5552 663.892 88.0294 663.892 86.1985C663.892 83.4522 663.179 81.5196 661.754 80.4007C660.329 79.2819 658.446 78.3156 656.104 77.5018L639.461 72.1618C636.713 71.2463 634.27 70.28 632.132 69.2629C630.096 68.2457 628.315 66.9743 626.788 65.4485C625.363 63.9228 624.243 62.0919 623.429 59.9559C622.716 57.8199 622.36 55.1752 622.36 52.0221C622.36 47.3431 623.429 43.4271 625.566 40.2739C627.806 37.1207 630.656 34.5778 634.117 32.6452C637.578 30.6109 641.344 29.1869 645.416 28.3732C649.59 27.4577 653.56 27 657.326 27C661.601 27 665.724 27.356 669.694 28.068C673.664 28.78 677.125 30.1023 680.077 32.0349C683.131 33.8658 685.523 36.4087 687.253 39.6636C688.984 42.9185 689.798 47.0888 689.696 52.1746H669.541Z" fill="white"/>
<path d="M709.089 30.0346H730.771L726.071 53.9886H726.377C727.191 52.8698 728.362 51.6492 729.888 50.3269C731.415 49.0046 733.248 47.784 735.385 46.6651C737.523 45.5462 740.017 44.6308 742.867 43.9188C745.717 43.1051 748.924 42.6982 752.487 42.6982C767.858 42.6982 775.543 49.7674 775.543 63.9059C775.543 64.7196 775.441 65.7877 775.238 67.11C775.034 68.3305 774.779 69.602 774.474 70.9243C774.271 72.2466 774.016 73.518 773.711 74.7386C773.507 75.8575 773.354 76.773 773.253 77.485L766.89 108.017H745.208L751.418 77.485C751.621 76.2644 751.876 74.6369 752.181 72.6026C752.588 70.5683 752.792 68.9917 752.792 67.8728C752.792 65.5334 751.672 63.6008 749.433 62.075C747.295 60.5493 744.954 59.7864 742.409 59.7864C739.152 59.7864 736.251 60.4476 733.706 61.7699C731.263 62.9905 729.125 64.6179 727.293 66.6522C725.562 68.6866 724.086 71.026 722.865 73.6706C721.745 76.3152 720.88 79.0107 720.269 81.757L714.822 108.017H693.293L709.089 30.0346Z" fill="white"/>
<path d="M747.057 103.876L742.619 103.876L742.619 108.003L747.057 108.003L747.057 103.876Z" fill="white"/>
<path d="M737.981 103.876L733.543 103.876L733.543 108.003L737.981 108.003L737.981 103.876Z" fill="white"/>
<path d="M742.419 99.7778L737.981 99.7778L737.981 103.905L742.419 103.905L742.419 99.7778Z" fill="white"/>
<path d="M748.543 95.6821L742.619 95.6821L742.619 99.8092L747.057 99.8092L748.543 95.6821Z" fill="white"/>
<path d="M708.969 33.5508L704.827 33.5508L704.827 29.4237L711.147 29.4237L708.969 33.5508Z" fill="white"/>
<path d="M700.685 33.5508L696.543 33.5508L696.543 29.4237L700.685 29.4237L700.685 33.5508Z" fill="white"/>
<path d="M708.969 41.7451L704.827 41.7451L704.827 37.618L708.969 37.618L708.969 41.7451Z" fill="white"/>
<path d="M704.827 37.709L700.685 37.709L700.685 33.5819L704.827 33.5819L704.827 37.709Z" fill="white"/>
</g>
<defs>
<clipPath id="clip0_480_15948">
<rect width="802" height="123" fill="white"/>
</clipPath>
</defs>
</svg>
