<?xml version="1.0" encoding="UTF-8" standalone="no"?>
<!-- Created with Inkscape (http://www.inkscape.org/) -->

<svg
   width="51.797825mm"
   height="68.43071mm"
   viewBox="0 0 51.797825 68.43071"
   version="1.1"
   id="svg5"
   inkscape:version="1.1.2 (0a00cf5, 2022-02-04)"
   sodipodi:docname="anon-sqirrel-2.svg"
   xmlns:inkscape="http://www.inkscape.org/namespaces/inkscape"
   xmlns:sodipodi="http://sodipodi.sourceforge.net/DTD/sodipodi-0.dtd"
   xmlns="http://www.w3.org/2000/svg"
   xmlns:svg="http://www.w3.org/2000/svg">
  <sodipodi:namedview
     id="namedview7"
     pagecolor="#505050"
     bordercolor="#eeeeee"
     borderopacity="1"
     inkscape:pageshadow="0"
     inkscape:pageopacity="0"
     inkscape:pagecheckerboard="0"
     inkscape:document-units="mm"
     showgrid="false"
     inkscape:zoom="1.1189113"
     inkscape:cx="81.329056"
     inkscape:cy="153.72085"
     inkscape:window-width="1440"
     inkscape:window-height="838"
     inkscape:window-x="0"
     inkscape:window-y="0"
     inkscape:window-maximized="1"
     inkscape:current-layer="layer1"
     fit-margin-top="0"
     fit-margin-left="0"
     fit-margin-right="0"
     fit-margin-bottom="0" />
  <defs
     id="defs2" />
  <g
     inkscape:label="Layer 1"
     inkscape:groupmode="layer"
     id="layer1"
     transform="translate(-82.339556,-114.18971)">
    <g
       style="fill:none"
       id="g899"
       transform="matrix(0.26458333,0,0,0.26458333,81.749882,128.88372)">
      <path
         d="m 168.289,112.115 c 0,28.571 -53.506,69.386 -69.9692,69.386 -16.4633,0 -69.9692,-40.815 -69.9692,-69.386 0,-40.5753 29.0532,-61.2233 69.9692,-61.2233 40.9162,0 69.9692,20.648 69.9692,61.2233 z"
         fill="#f29d38"
         id="path824" />
      <path
         d="m 135.726,28.7474 c 6.834,-11.8372 32.689,-19.45649 37.641,-16.5977 4.951,2.8587 11.281,29.0598 4.446,40.897 -9.705,16.8106 -23.382,20.3204 -35.688,13.2156 C 129.819,59.1575 126.02,45.558 135.726,28.7474 Z"
         fill="#f29d38"
         id="path826" />
      <path
         d="M 16.3797,52.8652 C 9.63511,41.1833 15.8814,15.3256 20.7679,12.5044 25.6545,9.68312 51.171,17.2025 57.9156,28.8845 67.4939,45.4747 63.7448,58.896 51.6003,65.9076 39.4558,72.9192 25.9581,69.4555 16.3797,52.8652 Z"
         fill="#f29d38"
         id="path828" />
      <path
         fill-rule="evenodd"
         clip-rule="evenodd"
         d="m 99.6548,86.4777 c 2.0302,0 3.6762,1.8963 3.6762,4.2355 v 59.2978 c 0,2.34 -1.646,4.236 -3.6762,4.236 -2.0305,0 -3.6765,-1.896 -3.6765,-4.236 V 90.7132 c 0,-2.3392 1.646,-4.2355 3.6765,-4.2355 z"
         fill="#90665e"
         id="path830" />
      <path
         d="m 116.199,175.31 c 0,4.552 -7.407,8.242 -16.5442,8.242 -9.137,0 -16.5441,-3.69 -16.5441,-8.242 0,-4.552 7.4071,-8.242 16.5441,-8.242 9.1372,0 16.5442,3.69 16.5442,8.242 z"
         fill="#000000"
         id="path832" />
      <path
         d="m 141.934,72.7407 c 0,9.6099 -18.929,17.4002 -42.2792,17.4002 -23.3502,0 -42.2793,-7.7903 -42.2793,-17.4002 0,-9.6099 18.9291,-17.4002 42.2793,-17.4002 23.3502,0 42.2792,7.7903 42.2792,17.4002 z"
         fill="#000000"
         id="path834" />
      <path
         fill-rule="evenodd"
         clip-rule="evenodd"
         d="m 105.205,59.0352 c 0.607,0.0995 0.996,0.4143 0.93,0.751 l -1.97,9.9807 h 5.96 c 0.817,0 1.617,0.1551 2.078,0.5377 0.42,0.3481 0.39,0.7552 0.118,1.0538 l -0.143,0.1638 c -0.011,0.0121 -0.022,0.024 -0.034,0.0358 L 97.4872,86.1049 c -0.3003,0.2981 -0.9541,0.4412 -1.5605,0.3415 -0.6063,-0.0996 -0.9957,-0.4142 -0.9293,-0.7508 l 1.9699,-9.9807 h -5.9601 c -0.7378,0 -1.8484,-0.1073 -2.259,-0.6874 -0.1751,-0.2472 -0.1329,-0.484 -0.0569,-0.6537 0.0773,-0.1726 0.2133,-0.33 0.3497,-0.4602 0.1009,-0.0962 0.1622,-0.154 0.197,-0.1862 0.0077,-0.0071 0.0156,-0.0143 0.0233,-0.0212 L 103.644,59.3779 c 0.3,-0.2986 0.954,-0.4421 1.561,-0.3427 z"
         fill="#ffffff"
         id="path836" />
      <path
         d="m 140.285,41.1586 c 3.174,-5.4791 12.799,-10.3787 14.365,-9.4779 1.566,0.9008 2.119,11.6555 -1.055,17.1346 -4.509,7.7811 -9.567,10.1511 -13.458,7.9124 -3.892,-2.2387 -4.361,-7.7881 0.148,-15.5691 z"
         fill="#90665e"
         id="path838" />
      <path
         d="M 37.4234,47.7058 C 34.2902,42.2986 34.8366,31.6849 36.382,30.7959 c 1.5453,-0.889 11.0435,3.9464 14.1767,9.3536 4.4495,7.6791 3.9867,13.1556 0.1462,15.365 -3.8406,2.2094 -8.832,-0.1296 -13.2815,-7.8087 z"
         fill="#90665e"
         id="path840" />
      <path
         d="M 198,98.7942 H 2.22869 V 120.773 H 9.5816 v 7.327 h 8.272 v 7.326 h 7.3529 v 7.327 h 45.0366 v -7.327 H 77.596 V 128.1 h 7.353 v -7.327 h 8.272 v -7.326 h 13.787 v 7.326 h 8.272 v 7.327 h 7.353 v 7.326 h 7.353 v 7.327 h 45.955 v -7.327 h 7.353 V 128.1 h 7.353 v -7.327 H 198 Z"
         fill="#000000"
         id="path842" />
      <path
         d="m 40.0783,120.83 h -7.5188 v -7.271 h 7.5188 z"
         fill="#ffffff"
         id="path844" />
      <path
         d="m 32.5865,128.096 h -7.5188 v -7.272 h 7.5188 z"
         fill="#ffffff"
         id="path846" />
      <path
         d="m 47.6242,128.096 h -7.5188 v -7.272 h 7.5188 z"
         fill="#ffffff"
         id="path848" />
      <path
         d="m 130.331,120.83 h -7.519 v -7.271 h 7.519 z"
         fill="#ffffff"
         id="path850" />
      <path
         d="m 145.368,120.83 h -7.518 v -7.271 h 7.518 z"
         fill="#ffffff"
         id="path852" />
      <path
         d="m 145.368,135.369 h -7.518 v -7.271 h 7.518 z"
         fill="#ffffff"
         id="path854" />
      <path
         d="m 160.406,135.369 h -7.518 v -7.271 h 7.518 z"
         fill="#ffffff"
         id="path856" />
      <path
         d="M 55.1428,135.369 H 47.624 v -7.271 h 7.5188 z"
         fill="#ffffff"
         id="path858" />
      <path
         d="m 25.0675,120.83 h -7.5189 v -7.271 h 7.5189 z"
         fill="#ffffff"
         id="path860" />
      <path
         d="m 40.1053,135.369 h -7.5188 v -7.271 h 7.5188 z"
         fill="#ffffff"
         id="path862" />
      <path
         d="m 137.85,128.096 h -7.519 v -7.272 h 7.519 z"
         fill="#ffffff"
         id="path864" />
      <path
         d="m 152.887,128.096 h -7.518 v -7.272 h 7.518 z"
         fill="#ffffff"
         id="path866" />
      <path
         fill-rule="evenodd"
         clip-rule="evenodd"
         d="m 183.488,57.6848 c -4.654,8.0317 -10.271,13.8224 -16.548,17.1945 4.259,6.9072 7.187,14.8971 8.605,23.9147 h -8.671 c -1.436,-8.0775 -4.245,-15.0493 -8.19,-20.9568 -0.056,0.0107 -0.112,0.0213 -0.169,0.0317 -1.875,-2.8197 -4.011,-5.4135 -6.386,-7.7806 9.083,0.8172 18.125,-4.2752 25.091,-16.2968 6.733,-11.6199 0.498,-37.3402 -4.381,-40.1465 -4.878,-2.8062 -30.351,4.6732 -37.084,16.2931 -6.326,10.9185 -6.828,20.4571 -2.932,27.6821 -9.813,-3.9558 -21.293,-5.9446 -33.9201,-5.9446 -14.5373,0 -27.5547,2.6362 -38.2576,7.8753 C 65.8769,52.2136 65.9929,41.9737 59.0968,30.0724 52.5593,18.7898 28.1195,11.4626 22.7477,13.8668 c -0.1342,0.0187 -0.2301,0.0376 -0.2929,0.0513 -0.0434,0.0474 -0.1079,0.1208 -0.1915,0.2276 C 17.4882,17.5837 11.639,42.3318 18.1758,53.613 26.0433,67.1909 36.5948,71.812 46.82,68.9846 38.7959,76.4995 33.3087,86.4461 31.0823,98.794 h -7.557 C 24.8458,90.3955 27.476,82.8884 31.2714,76.3172 23.7491,73.3105 17.0506,67.0075 11.649,57.6855 9.29716,53.6267 8.22268,48.6318 7.87581,43.6727 7.52526,38.6612 7.89633,33.3664 8.68565,28.4692 9.47438,23.5757 10.7036,18.9381 12.1476,15.2364 c 0.7201,-1.846 1.5297,-3.5528 2.421,-4.9729 0.827,-1.31759 1.9933,-2.83046 3.5947,-3.75167 1.6014,-0.92121 3.4995,-1.17124 5.0581,-1.22603 1.6799,-0.05905 3.5683,0.0957 5.5328,0.39733 3.9394,0.60482 8.5847,1.86291 13.2323,3.62908 4.6512,1.76749 9.4387,4.09469 13.6192,6.90289 4.1368,2.7789 7.9409,6.2035 10.2927,10.2623 4.1074,7.0885 6.3225,13.9513 6.6435,20.3478 8.335,-2.1554 17.4087,-3.2166 26.993,-3.2166 8.1191,0 15.8711,0.7615 23.1181,2.3045 0.477,-6.1353 2.672,-12.6834 6.585,-19.4363 2.352,-4.0589 6.156,-7.4835 10.293,-10.2623 4.181,-2.8083 8.968,-5.1355 13.619,-6.90297 4.648,-1.76617 9.293,-3.02426 13.233,-3.62908 1.964,-0.30163 3.852,-0.45638 5.532,-0.39733 1.559,0.05479 3.457,0.30481 5.058,1.22603 1.602,0.92121 2.768,2.43408 3.595,3.75165 0.891,1.4201 1.701,3.1269 2.421,4.9729 1.444,3.7017 2.673,8.3393 3.462,13.2328 0.789,4.8972 1.16,10.192 0.81,15.2035 -0.347,4.9591 -1.421,9.954 -3.773,14.0128 z M 35.562,142.752 c 5.2424,6.921 11.6396,13.618 18.3393,19.626 8.2093,7.362 16.994,13.797 24.8872,18.419 3.9454,2.311 7.7312,4.205 11.1597,5.534 3.358,1.301 6.6742,2.179 9.5867,2.179 2.9121,0 6.2291,-0.878 9.5871,-2.179 3.428,-1.329 7.214,-3.223 11.159,-5.534 7.894,-4.622 16.678,-11.057 24.888,-18.419 6.699,-6.008 13.096,-12.705 18.339,-19.626 h -10.657 c -12.074,14.198 -29.051,27.103 -41.633,33.287 -1.859,0.943 -3.601,1.729 -5.197,2.348 -2.957,1.146 -5.121,1.6 -6.4861,1.6 -0.4118,0 -0.8964,-0.042 -1.4537,-0.131 -11.1433,-0.828 -36.6821,-17.768 -53.126,-37.104 z"
         fill="#000000"
         id="path868" />
    </g>
    <path
       id="path1964"
       style="stroke-width:0.147616"
       d="m 91.574144,173.17302 v 1.18092 h -1.18092 v 1.18093 1.18092 1.18093 1.18092 h 1.18092 v 1.18093 h 1.18093 v 1.18093 h 1.18092 1.18093 v 1.18092 h 1.18092 1.18093 1.18093 1.180919 1.180937 1.18092 v -1.18092 h 1.18093 1.18093 v -1.18093 h 1.18092 1.18093 v -1.18093 h 1.18092 1.18093 v 1.18093 h 1.18092 1.18093 v 1.18093 h 1.18092 1.18093 v 1.18092 h 1.18093 1.18092 1.18093 1.18093 1.18092 1.18093 1.18092 1.18092 v -1.18092 h 1.18093 v -1.18093 h 1.18093 v -1.18093 -1.18092 -1.18093 -1.18092 -1.18093 h -1.18093 v -1.18092 h -1.18093 -1.18092 -1.18092 v 1.18092 h 1.18092 v 1.18093 1.18092 h -1.18092 -1.18093 v -1.18092 h -1.18092 -1.18093 v -1.18093 h -1.18093 -1.18092 v -1.18092 h -1.18093 -1.18093 -1.18092 -1.18093 -1.18092 v 1.18092 h -1.18093 -1.18092 v -1.18092 h -1.18093 -1.18092 -1.18093 -1.18093 -1.18092 v 1.18092 h -1.180937 -1.180919 v 1.18093 h -1.18093 -1.18093 v 1.18092 h -1.18092 -1.18093 v -1.18092 -1.18093 h 1.18093 v -1.18092 h -1.18093 -1.18092 z" />
  </g>
</svg>
