<svg width="16" height="16" viewBox="0 0 16 16" fill="none" xmlns="http://www.w3.org/2000/svg">
<path d="M4.71663 11.8273C4.71663 11.9099 4.60988 11.9759 4.47528 11.9759C4.32211 11.9883 4.21536 11.9222 4.21536 11.8273C4.21536 11.7448 4.32211 11.6788 4.45671 11.6788C4.59595 11.6664 4.71663 11.7325 4.71663 11.8273ZM3.27314 11.6417C3.24065 11.7242 3.33348 11.8191 3.47272 11.8439C3.5934 11.8851 3.73265 11.8439 3.76049 11.7613C3.78834 11.6788 3.70016 11.5839 3.56091 11.5468C3.44023 11.5179 3.30563 11.5592 3.27314 11.6417ZM5.32466 11.5715C5.19006 11.6004 5.09723 11.6788 5.11116 11.7737C5.12508 11.8562 5.24576 11.9099 5.385 11.881C5.5196 11.8521 5.61243 11.7737 5.59851 11.6912C5.58458 11.6128 5.45926 11.5592 5.32466 11.5715ZM5.6867 15.1982C5.6867 14.9424 5.67277 13.5314 5.67277 12.6649C5.67277 12.6649 2.42376 13.2838 1.74146 11.4354C1.74146 11.4354 1.21234 10.2347 0.451138 9.92529C0.451138 9.92529 -0.611754 9.27752 0.525401 9.2899C0.525401 9.2899 1.68112 9.37242 2.317 10.3544C3.33348 11.947 5.03689 11.489 5.70062 11.2167C5.80737 10.5566 6.10907 10.0986 6.44325 9.82627C3.84868 9.57046 1.2309 9.23626 1.2309 5.26712C1.2309 4.13249 1.58365 3.56311 2.32629 2.83695C2.20561 2.56876 1.81108 1.46301 2.44696 0.0354406C3.41703 -0.232745 5.64956 1.14944 5.64956 1.14944C6.57785 0.91839 7.57577 0.798738 8.5644 0.798738C9.55303 0.798738 10.5509 0.91839 11.4792 1.14944C11.4792 1.14944 13.7118 -0.236871 14.6818 0.0354406C15.3177 1.46714 14.9232 2.56876 14.8025 2.83695C15.5451 3.56724 16 4.13661 16 5.26712C16 9.24864 13.2662 9.56634 10.6716 9.82627C11.0986 10.1522 11.4607 10.7711 11.4607 11.7407C11.4607 13.1311 11.4467 14.8517 11.4467 15.19C11.4467 16.3214 5.6867 16.2147 5.6867 15.1982ZM1.52796 9.99131C1.46762 10.0326 1.48154 10.1275 1.56045 10.2059C1.63471 10.2719 1.74146 10.3008 1.8018 10.2471C1.86214 10.2059 1.84822 10.111 1.76931 10.0326C1.69505 9.96655 1.58829 9.93767 1.52796 9.99131ZM1.02668 9.65711C0.994188 9.71074 1.0406 9.77676 1.13343 9.81802C1.20769 9.85928 1.30052 9.8469 1.33301 9.78914C1.3655 9.7355 1.31909 9.66949 1.22626 9.62823C1.13343 9.60347 1.05917 9.61585 1.02668 9.65711ZM2.53051 11.1259C2.45625 11.1796 2.48409 11.3034 2.59085 11.3817C2.6976 11.4766 2.8322 11.489 2.89254 11.423C2.95288 11.3694 2.92503 11.2456 2.8322 11.1672C2.73009 11.0723 2.59085 11.0599 2.53051 11.1259ZM2.00138 10.5194C1.92712 10.5607 1.92712 10.668 2.00138 10.7629C2.07565 10.8578 2.20097 10.899 2.26131 10.8578C2.33557 10.8041 2.33557 10.6968 2.26131 10.6019C2.19632 10.507 2.07565 10.4658 2.00138 10.5194Z" fill="black"/>
</svg>
