<svg width="222" height="34" viewBox="0 0 222 34" fill="none" xmlns="http://www.w3.org/2000/svg">
<path d="M42.9138 11.5051L41.7096 11.5051L41.7096 10.3083L42.9138 10.3083L42.9138 11.5051Z" fill="white"/>
<path d="M44.145 7.94165L42.9409 7.94165L42.9409 6.7448L44.145 6.7448L44.145 7.94165Z" fill="white"/>
<path d="M41.6824 7.94165L40.4783 7.94165L40.4783 6.7448L41.6824 6.7448L41.6824 7.94165Z" fill="white"/>
<path d="M42.8866 9.13013L41.6825 9.13013L41.6825 7.93328L42.8866 7.93328L42.8866 9.13013Z" fill="white"/>
<path d="M42.8866 13.9351L41.6825 13.9351L41.6825 12.7382L42.8866 12.7382L42.8866 13.9351Z" fill="white"/>
<path d="M43.8571 10.3179L42.9409 10.3179L42.9409 9.12102L44.145 9.12102L43.8571 10.3179Z" fill="white"/>
<path d="M41.6824 10.3179L40.4783 10.3179L40.4783 9.12102L41.6824 9.12102L41.6824 10.3179Z" fill="white"/>
<path d="M40.4783 9.14746L39.2741 9.14746L39.2741 7.95061L40.4783 7.95061L40.4783 9.14746Z" fill="white"/>
<path d="M115.21 11.5051L114.006 11.5051L114.006 10.3083L115.21 10.3083L115.21 11.5051Z" fill="white"/>
<path d="M113.982 12.7422L112.777 12.7422L112.777 11.5453L113.982 11.5453L113.982 12.7422Z" fill="white"/>
<path d="M116.441 7.94165L115.237 7.94165L115.237 6.7448L116.441 6.7448L116.441 7.94165Z" fill="white"/>
<path d="M113.978 7.94165L112.774 7.94165L112.774 6.7448L113.978 6.7448L113.978 7.94165Z" fill="white"/>
<path d="M111.57 7.94165L110.366 7.94165L110.366 6.7448L111.57 6.7448L111.57 7.94165Z" fill="white"/>
<path d="M115.183 9.13013L113.978 9.13013L113.978 7.93328L115.183 7.93328L115.183 9.13013Z" fill="white"/>
<path d="M115.183 13.9351L113.978 13.9351L113.978 12.7382L115.183 12.7382L115.183 13.9351Z" fill="white"/>
<path d="M116.153 10.3179L115.237 10.3179L115.237 9.12102L116.441 9.12102L116.153 10.3179Z" fill="white"/>
<path d="M113.978 10.3179L112.774 10.3179L112.774 9.12102L113.978 9.12102L113.978 10.3179Z" fill="white"/>
<path d="M112.774 9.14746L111.57 9.14746L111.57 7.95061L112.774 7.95061L112.774 9.14746Z" fill="white"/>
<path d="M53.6351 24.7605L52.3449 24.7605L52.3449 25.9573L53.6351 25.9573L53.6351 24.7605Z" fill="white"/>
<path d="M54.9543 28.324L53.6641 28.324L53.6641 29.5208L54.9543 29.5208L54.9543 28.324Z" fill="white"/>
<path d="M52.3158 28.324L51.0257 28.324L51.0257 29.5208L52.3158 29.5208L52.3158 28.324Z" fill="white"/>
<path d="M53.606 27.1355L52.3158 27.1355L52.3158 28.3323L53.606 28.3323L53.606 27.1355Z" fill="white"/>
<path d="M50.9412 27.1355L49.651 27.1355L49.651 28.3323L50.9412 28.3323L50.9412 27.1355Z" fill="white"/>
<path d="M55.5667 25.9478L53.6641 25.9478L53.6641 27.1446L54.9543 27.1446L55.5667 25.9478Z" fill="white"/>
<path d="M126.247 13.3307C126.218 12.3573 125.922 11.6051 125.36 11.0741C124.827 10.5137 123.939 10.2334 122.696 10.2334C121.572 10.2334 120.639 10.4104 119.9 10.7644C119.189 11.0889 118.834 11.6641 118.834 12.49C118.834 12.9914 119.041 13.4192 119.456 13.7731C119.9 14.1271 120.654 14.4663 121.72 14.7908L124.871 15.8085C125.729 16.0739 126.514 16.3837 127.224 16.7376C127.964 17.0916 128.6 17.5341 129.133 18.065C129.695 18.5665 130.124 19.1712 130.42 19.8791C130.745 20.5871 130.908 21.413 130.908 22.3569C130.908 23.7728 130.583 24.9822 129.932 25.9851C129.31 26.9585 128.482 27.755 127.446 28.3744C126.41 28.9939 125.241 29.4363 123.939 29.7018C122.637 29.9673 121.32 30.1 119.988 30.1C118.864 30.1 117.725 29.982 116.57 29.7461C115.416 29.5101 114.366 29.1266 113.419 28.5957C112.501 28.0352 111.747 27.3125 111.155 26.4276C110.563 25.5132 110.267 24.3775 110.267 23.0206V22.0914H116.082V22.8436C116.082 23.3746 116.215 23.8318 116.482 24.2153C116.748 24.5987 117.088 24.9232 117.503 25.1887C117.947 25.4247 118.435 25.6164 118.967 25.7639C119.53 25.8819 120.077 25.9409 120.61 25.9409C121.083 25.9409 121.557 25.8966 122.03 25.8081C122.504 25.7196 122.933 25.5722 123.318 25.3657C123.702 25.1297 124.013 24.8495 124.25 24.525C124.487 24.171 124.605 23.7286 124.605 23.1976C124.605 22.4012 124.398 21.8407 123.983 21.5162C123.569 21.1918 123.022 20.9115 122.341 20.6756L117.503 19.1269C116.704 18.8615 115.993 18.5812 115.372 18.2863C114.78 17.9913 114.262 17.6226 113.818 17.1801C113.404 16.7376 113.078 16.2067 112.842 15.5872C112.635 14.9678 112.531 14.2008 112.531 13.2864C112.531 11.9295 112.842 10.7939 113.463 9.87946C114.114 8.96503 114.943 8.2276 115.949 7.66714C116.955 7.07719 118.05 6.66423 119.234 6.42825C120.447 6.16277 121.601 6.03003 122.696 6.03003C123.939 6.03003 125.138 6.13327 126.292 6.33975C127.446 6.54624 128.452 6.9297 129.31 7.49016C130.198 8.02111 130.893 8.75855 131.396 9.70247C131.9 10.6464 132.136 11.8558 132.107 13.3307H126.247Z" fill="white"/>
<path d="M143.99 9.39275H148.517L147.541 13.5961H143.058L141.242 22.2242C141.183 22.4602 141.139 22.6814 141.109 22.8879C141.08 23.0649 141.065 23.1976 141.065 23.2861C141.065 23.6991 141.124 24.0235 141.242 24.2595C141.39 24.466 141.568 24.6282 141.775 24.7462C141.982 24.8642 142.204 24.938 142.441 24.9675C142.707 24.9675 142.959 24.9675 143.196 24.9675C143.965 24.9675 144.72 24.9232 145.459 24.8347L144.394 29.6576C143.743 29.7166 143.092 29.7608 142.441 29.7903C141.79 29.8493 141.124 29.8788 140.443 29.8788C139.704 29.8788 138.964 29.8051 138.224 29.6576C137.514 29.5396 136.863 29.3183 136.271 28.9939C135.709 28.6399 135.25 28.1679 134.895 27.578C134.569 26.988 134.421 26.2211 134.451 25.2772C134.451 24.9822 134.48 24.6577 134.54 24.3038C134.599 23.9203 134.673 23.5221 134.762 23.1091L136.799 13.5961H136.717L137.693 9.39275H137.687L138.367 6.91496H144.67L143.99 9.39275Z" fill="white"/>
<path d="M152.733 13.5961C152.94 12.1508 153.384 10.9561 154.065 10.0122C154.745 9.03878 155.574 8.25709 156.551 7.66714C157.527 7.07719 158.622 6.66423 159.835 6.42825C161.049 6.16277 162.306 6.03003 163.608 6.03003C164.644 6.03003 165.724 6.10377 166.849 6.25126C167.973 6.39875 169.009 6.69372 169.956 7.13619C170.903 7.54915 171.673 8.15385 172.264 8.95029C172.886 9.71722 173.182 10.7496 173.152 12.0475C173.152 13.1389 172.989 14.4221 172.664 15.897L170.622 25.1002C170.504 25.5132 170.415 26.0294 170.356 26.6488C170.326 27.2388 170.311 27.755 170.311 28.1974C170.311 28.5809 170.385 29.0234 170.533 29.5248H164.23V27.2683C163.372 28.2417 162.321 28.9644 161.078 29.4363C159.835 29.8788 158.548 30.1 157.216 30.1C155.974 30.1 154.879 29.9378 153.932 29.6133C153.014 29.2888 152.245 28.8611 151.623 28.3302C151.002 27.7697 150.543 27.1355 150.247 26.4276C149.951 25.6901 149.803 24.9232 149.803 24.1268C149.803 21.9145 150.558 20.1446 152.067 18.8172C153.606 17.4898 155.766 16.6639 158.548 16.3394C160.028 16.1624 161.315 16.0297 162.41 15.9412C163.505 15.8527 164.407 15.72 165.118 15.543C165.858 15.3365 166.405 15.0563 166.76 14.7023C167.115 14.3188 167.293 13.7584 167.293 13.0209C167.293 12.431 167.16 11.959 166.893 11.6051C166.627 11.2511 166.287 10.9709 165.872 10.7644C165.488 10.5579 165.059 10.4252 164.585 10.3662C164.141 10.2777 163.712 10.2334 163.298 10.2334C162.173 10.2334 161.167 10.5137 160.279 11.0741C159.391 11.6051 158.844 12.4457 158.637 13.5961H152.733ZM166.05 18.5517C165.251 19.0237 164.393 19.3187 163.475 19.4367C162.558 19.5252 161.641 19.5989 160.723 19.6579C160.131 19.7169 159.554 19.8201 158.992 19.9676C158.43 20.0856 157.927 20.2773 157.483 20.5428C157.068 20.8083 156.728 21.177 156.462 21.649C156.195 22.0914 156.062 22.6666 156.062 23.3746C156.062 24.23 156.403 24.879 157.083 25.3214C157.793 25.7344 158.607 25.9409 159.525 25.9409C160.501 25.9409 161.315 25.7934 161.966 25.4984C162.647 25.1739 163.209 24.7757 163.653 24.3038C164.126 23.8023 164.496 23.2418 164.763 22.6224C165.029 22.003 165.251 21.3835 165.428 20.7641L166.05 18.5517Z" fill="white"/>
<path d="M191.184 13.3307C191.154 12.3573 190.858 11.6051 190.296 11.0741C189.763 10.5137 188.876 10.2334 187.633 10.2334C186.508 10.2334 185.576 10.4104 184.836 10.7644C184.126 11.0889 183.771 11.6641 183.771 12.49C183.771 12.9914 183.978 13.4192 184.392 13.7731C184.836 14.1271 185.591 14.4663 186.656 14.7908L189.808 15.8085C190.666 16.0739 191.45 16.3837 192.16 16.7376C192.9 17.0916 193.537 17.5341 194.069 18.065C194.631 18.5665 195.061 19.1712 195.356 19.8791C195.682 20.5871 195.845 21.413 195.845 22.3569C195.845 23.7728 195.519 24.9822 194.868 25.9851C194.247 26.9585 193.418 27.755 192.382 28.3744C191.347 28.9939 190.178 29.4363 188.876 29.7018C187.574 29.9673 186.257 30.1 184.925 30.1C183.8 30.1 182.661 29.982 181.507 29.7461C180.353 29.5101 179.302 29.1266 178.355 28.5957C177.438 28.0352 176.683 27.3125 176.092 26.4276C175.5 25.5132 175.204 24.3775 175.204 23.0206V22.0914H181.019V22.8436C181.019 23.3746 181.152 23.8318 181.418 24.2153C181.685 24.5987 182.025 24.9232 182.439 25.1887C182.883 25.4247 183.371 25.6164 183.904 25.7639C184.466 25.8819 185.014 25.9409 185.546 25.9409C186.02 25.9409 186.493 25.8966 186.967 25.8081C187.44 25.7196 187.869 25.5722 188.254 25.3657C188.639 25.1297 188.95 24.8495 189.186 24.525C189.423 24.171 189.541 23.7286 189.541 23.1976C189.541 22.4012 189.334 21.8407 188.92 21.5162C188.506 21.1918 187.958 20.9115 187.278 20.6756L182.439 19.1269C181.64 18.8615 180.93 18.5812 180.309 18.2863C179.717 17.9913 179.199 17.6226 178.755 17.1801C178.341 16.7376 178.015 16.2067 177.778 15.5872C177.571 14.9678 177.468 14.2008 177.468 13.2864C177.468 11.9295 177.778 10.7939 178.4 9.87946C179.051 8.96503 179.879 8.2276 180.886 7.66714C181.892 7.07719 182.987 6.66423 184.17 6.42825C185.384 6.16277 186.538 6.03003 187.633 6.03003C188.876 6.03003 190.074 6.13327 191.228 6.33975C192.382 6.54624 193.389 6.9297 194.247 7.49016C195.135 8.02111 195.83 8.75855 196.333 9.70247C196.836 10.6464 197.073 11.8558 197.043 13.3307H191.184Z" fill="white"/>
<path d="M202.681 6.91006H208.984L207.618 13.8567H207.707C207.943 13.5323 208.284 13.1783 208.728 12.7948C209.172 12.4114 209.704 12.0574 210.326 11.7329C210.947 11.4084 211.672 11.143 212.501 10.9365C213.329 10.7005 214.261 10.5825 215.297 10.5825C219.766 10.5825 222 12.6326 222 16.7327C222 16.9687 221.97 17.2784 221.911 17.6619C221.852 18.0159 221.778 18.3846 221.689 18.7681C221.63 19.1515 221.556 19.5203 221.467 19.8742C221.408 20.1987 221.364 20.4642 221.334 20.6707L219.484 29.5248H213.181L214.987 20.6707C215.046 20.3167 215.12 19.8447 215.208 19.2548C215.327 18.6648 215.386 18.2076 215.386 17.8831C215.386 17.2047 215.06 16.6443 214.409 16.2018C213.788 15.7593 213.107 15.5381 212.368 15.5381C211.421 15.5381 210.577 15.7298 209.837 16.1133C209.127 16.4673 208.506 16.9392 207.973 17.5292C207.47 18.1191 207.041 18.7976 206.686 19.5645C206.36 20.3314 206.109 21.1131 205.931 21.9096L204.348 29.5248H198.089L202.681 6.91006Z" fill="white"/>
<path d="M44.1817 6.64948H50.2186L49.5084 9.83521H49.5971C51.639 7.29842 54.3172 6.03003 57.6316 6.03003C62.1001 6.03003 64.3344 8.08011 64.3344 12.1803C64.3344 12.4162 64.3048 12.726 64.2456 13.1094C64.1864 13.4634 64.1124 13.8321 64.0236 14.2156C63.9645 14.5991 63.8905 14.9678 63.8017 15.3218C63.7425 15.6462 63.6981 15.9117 63.6685 16.1182L60.8276 29.5248H54.5243L57.3209 16.1182C57.3801 15.7642 57.454 15.2923 57.5428 14.7023C57.6612 14.1124 57.7204 13.6551 57.7204 13.3307C57.7204 12.6522 57.3948 12.0918 56.7438 11.6493C56.1224 11.2068 55.4417 10.9856 54.7019 10.9856C53.7549 10.9856 52.9115 11.1774 52.1717 11.5608C51.4615 11.9148 50.84 12.3868 50.3074 12.9767C49.8043 13.5667 49.3752 14.2451 49.0201 15.012C48.6946 15.779 48.443 16.5607 48.2655 17.3571L45.6909 29.5248H39.432L44.1817 6.64948Z" fill="white"/>
<path d="M88.2747 29.5248H82.2378L82.948 26.3391H82.8592C80.8173 28.8464 78.1392 30.1 74.8248 30.1C70.3563 30.1 68.122 28.0647 68.122 23.994C68.122 23.7581 68.1368 23.4631 68.1664 23.1091C68.2256 22.7256 68.2848 22.3422 68.344 21.9587C68.4327 21.5752 68.5067 21.2213 68.5659 20.8968C68.6547 20.5428 68.7287 20.2626 68.7878 20.0561L71.6288 6.64948H77.932L75.1355 20.0561C75.0763 20.2331 75.0171 20.4543 74.958 20.7198C74.9284 20.9558 74.884 21.2065 74.8248 21.472C74.7952 21.7375 74.7656 22.003 74.736 22.2684C74.736 22.5044 74.736 22.6961 74.736 22.8436C74.736 23.5221 75.0467 24.0825 75.6682 24.525C76.3192 24.9675 77.0147 25.1887 77.7545 25.1887C78.7014 25.1887 79.53 25.0117 80.2403 24.6577C80.9801 24.2743 81.6015 23.7876 82.1046 23.1976C82.6373 22.6077 83.0664 21.9292 83.3919 21.1623C83.747 20.3953 84.0134 19.6137 84.1909 18.8172L86.7655 6.64948H92.778L88.2747 29.5248Z" fill="white"/>
<path d="M103.661 9.12727H108.188L107.212 13.3307H102.728L100.923 22.2242C100.864 22.4602 100.819 22.6814 100.79 22.8879C100.76 23.0649 100.745 23.1976 100.745 23.2861C100.745 23.6991 100.804 24.0235 100.923 24.2595C101.071 24.466 101.248 24.6282 101.455 24.7462C101.663 24.8642 101.885 24.938 102.121 24.9675C102.388 24.9675 102.639 24.9675 102.876 24.9675C103.645 24.9675 104.4 24.9232 105.14 24.8347L104.074 29.6576C103.423 29.7166 102.772 29.7608 102.121 29.7903C101.47 29.8493 100.804 29.8788 100.124 29.8788C99.3839 29.8788 98.6441 29.8051 97.9043 29.6576C97.1941 29.5396 96.543 29.3183 95.9512 28.9939C95.3889 28.6399 94.9302 28.1679 94.5751 27.578C94.2496 26.988 94.1016 26.2211 94.1312 25.2772C94.1312 24.9822 94.1608 24.6577 94.22 24.3038C94.2792 23.9203 94.3531 23.5221 94.4419 23.1091L96.4695 13.3307H96.4118L97.3884 9.12727H97.3573L98.0379 6.64948H104.341L103.661 9.12727Z" fill="white"/>
<path d="M213.719 28.324L212.428 28.324L212.428 29.5208L213.719 29.5208L213.719 28.324Z" fill="white"/>
<path d="M211.08 28.324L209.79 28.324L209.79 29.5208L211.08 29.5208L211.08 28.324Z" fill="white"/>
<path d="M212.37 27.1355L211.08 27.1355L211.08 28.3323L212.37 28.3323L212.37 27.1355Z" fill="white"/>
<path d="M214.151 25.9478L212.428 25.9478L212.428 27.1446L213.719 27.1446L214.151 25.9478Z" fill="white"/>
<path fill-rule="evenodd" clip-rule="evenodd" d="M18.4853 15.2656C18.8522 15.2656 19.1497 15.6017 19.1497 16.0163L19.1497 26.5251C19.1497 26.9397 18.8522 27.2757 18.4853 27.2757C18.1184 27.2757 17.8209 26.9397 17.8209 26.5251L17.8209 16.0163C17.8209 15.6017 18.1184 15.2656 18.4853 15.2656Z" fill="white"/>
<path d="M21.475 31.0085C21.475 31.8153 20.1364 32.4692 18.4853 32.4692C16.8341 32.4692 15.4955 31.8153 15.4955 31.0085C15.4955 30.2018 16.8341 29.5479 18.4853 29.5479C20.1364 29.5479 21.475 30.2018 21.475 31.0085Z" fill="white"/>
<path d="M26.1257 12.831C26.1257 14.5341 22.7049 15.9147 18.4853 15.9147C14.2656 15.9147 10.8449 14.5341 10.8449 12.831C10.8449 11.1279 14.2656 9.74731 18.4853 9.74731C22.7049 9.74731 26.1257 11.1279 26.1257 12.831Z" fill="white"/>
<path fill-rule="evenodd" clip-rule="evenodd" d="M19.4882 10.4023C19.5979 10.4199 19.6683 10.4757 19.6563 10.5354L19.3003 12.3042H20.3774C20.5251 12.3042 20.6696 12.3316 20.7529 12.3994C20.8287 12.4611 20.8233 12.5333 20.7743 12.5862L20.7484 12.6152C20.7464 12.6174 20.7444 12.6195 20.7423 12.6216L18.0935 15.1996C18.0393 15.2524 17.9211 15.2778 17.8115 15.2601C17.702 15.2424 17.6316 15.1867 17.6436 15.1271L17.9996 13.3583H16.9225C16.7892 13.3583 16.5885 13.3392 16.5143 13.2364C16.4827 13.1926 16.4903 13.1507 16.504 13.1206C16.518 13.09 16.5426 13.0621 16.5672 13.039C16.5854 13.022 16.5965 13.0117 16.6028 13.006C16.6042 13.0048 16.6056 13.0035 16.607 13.0023L19.2062 10.463C19.2603 10.4101 19.3785 10.3847 19.4882 10.4023Z" fill="#211E20"/>
<path d="M25.8276 7.23424C26.4013 6.26325 28.1405 5.39494 28.4235 5.55457C28.7065 5.71421 28.8065 7.62017 28.2328 8.59117C27.418 9.97014 26.5041 10.3902 25.8008 9.99341C25.0975 9.59666 25.0128 8.61321 25.8276 7.23424Z" fill="white"/>
<path d="M7.23931 8.39436C6.67311 7.43609 6.77186 5.55512 7.05112 5.39757C7.33038 5.24003 9.04682 6.09695 9.61302 7.05522C10.4171 8.41611 10.3335 9.38667 9.63944 9.77821C8.9454 10.1698 8.0434 9.75525 7.23931 8.39436Z" fill="white"/>
<path d="M36.2575 17.4482H0.879211V21.3434H2.20797V22.6418H3.70283V23.9402H5.03159V25.2386H13.1702V23.9402H14.499V22.6418H15.8278V21.3434H17.3226V20.045H19.8141V21.3434H21.3089V22.6418H22.6377V23.9402H23.9664V25.2386H32.2712V23.9402H33.5999V22.6418H34.9287V21.3434H36.2575V17.4482Z" fill="white"/>
<path d="M7.71906 21.3535L6.36031 21.3535L6.36032 20.0649L7.71906 20.0649L7.71906 21.3535Z" fill="#211E20"/>
<path d="M6.36523 22.6411L5.00649 22.6411L5.00649 21.3525L6.36523 21.3525L6.36523 22.6411Z" fill="#211E20"/>
<path d="M9.0827 22.6411L7.72396 22.6411L7.72396 21.3525L9.0827 21.3525L9.0827 22.6411Z" fill="#211E20"/>
<path d="M24.0288 21.3535L22.6701 21.3535L22.6701 20.0649L24.0288 20.0649L24.0288 21.3535Z" fill="#211E20"/>
<path d="M26.7463 21.3535L25.3875 21.3535L25.3875 20.0649L26.7463 20.0649L26.7463 21.3535Z" fill="#211E20"/>
<path d="M26.7463 23.9302L25.3875 23.9302L25.3875 22.6415L26.7463 22.6415L26.7463 23.9302Z" fill="#211E20"/>
<path d="M29.4638 23.9302L28.1051 23.9302L28.1051 22.6415L29.4638 22.6415L29.4638 23.9302Z" fill="#211E20"/>
<path d="M10.4414 23.9302L9.08267 23.9302L9.08267 22.6415L10.4414 22.6415L10.4414 23.9302Z" fill="#211E20"/>
<path d="M5.00641 21.3535L3.64767 21.3535L3.64767 20.0649L5.00641 20.0649L5.00641 21.3535Z" fill="#211E20"/>
<path d="M7.72394 23.9302L6.3652 23.9302L6.3652 22.6415L7.72394 22.6415L7.72394 23.9302Z" fill="#211E20"/>
<path d="M25.3875 22.6411L24.0288 22.6411L24.0288 21.3525L25.3875 21.3525L25.3875 22.6411Z" fill="#211E20"/>
<path d="M28.105 22.6411L26.7463 22.6411L26.7463 21.3525L28.105 21.3525L28.105 22.6411Z" fill="#211E20"/>
<path fill-rule="evenodd" clip-rule="evenodd" d="M33.6349 10.1628C32.7939 11.5862 31.7788 12.6124 30.6445 13.21C31.4141 14.4341 31.9432 15.8501 32.1994 17.4482H30.6326C30.373 16.0167 29.8655 14.7811 29.1525 13.7342L29.122 13.7398C28.7831 13.2401 28.3972 12.7804 27.9678 12.361C29.6094 12.5058 31.2434 11.6033 32.5022 9.47282C33.719 7.41353 32.5921 2.85537 31.7106 2.35804C30.829 1.86071 26.2258 3.18622 25.0091 5.24551C23.8658 7.18053 23.775 8.87098 24.4791 10.1514C22.7058 9.45035 20.6312 9.09789 18.3494 9.09789C15.7223 9.09789 13.3699 9.56507 11.4357 10.4936C12.3812 9.19326 12.4022 7.3785 11.1559 5.26931C9.97448 3.26976 5.55773 1.97121 4.58713 2.39738C4.5629 2.40069 4.5456 2.40403 4.53427 2.40647C4.52642 2.41486 4.51479 2.42786 4.4997 2.44675C3.63677 3.05595 2.57971 7.44191 3.76099 9.4412C5.18277 11.8475 7.08958 12.6664 8.93741 12.1653C7.48735 13.4971 6.49573 15.2599 6.09337 17.4482H4.72774C4.96636 15.9598 5.44167 14.6294 6.12752 13.4649C4.76817 12.932 3.55765 11.815 2.58153 10.1629C2.15652 9.44364 1.96235 8.55844 1.89967 7.67959C1.83632 6.79145 1.90337 5.85311 2.04601 4.98522C2.18855 4.11798 2.41068 3.29612 2.67162 2.6401C2.80176 2.31294 2.94807 2.01046 3.10914 1.75879C3.25858 1.52529 3.46935 1.25718 3.75874 1.09392C4.04812 0.930664 4.39113 0.886354 4.6728 0.876644C4.97638 0.866179 5.31763 0.893604 5.67265 0.947059C6.38454 1.05425 7.22401 1.27721 8.06389 1.59021C8.9044 1.90345 9.76956 2.31587 10.525 2.81355C11.2726 3.30602 11.9601 3.91293 12.3851 4.63224C13.1273 5.88845 13.5276 7.10467 13.5856 8.23826C15.0919 7.85628 16.7316 7.66819 18.4636 7.66819C19.9307 7.66819 21.3317 7.80315 22.6413 8.0766C22.7275 6.98929 23.1242 5.82883 23.8313 4.63206C24.2563 3.91276 24.9438 3.30585 25.6914 2.81337C26.4468 2.31569 27.312 1.90327 28.1525 1.59003C28.9924 1.27703 29.8319 1.05407 30.5438 0.946882C30.8988 0.893428 31.24 0.866002 31.5436 0.876468C31.8253 0.886177 32.1683 0.930487 32.4577 1.09375C32.747 1.257 32.9578 1.52511 33.1073 1.75861C33.2683 2.01028 33.4146 2.31277 33.5448 2.63992C33.8057 3.29594 34.0278 4.11781 34.1704 4.98504C34.313 5.85293 34.3801 6.79127 34.3167 7.67941C34.254 8.55827 34.0599 9.44347 33.6349 10.1628ZM6.90288 25.2385C7.85026 26.465 9.00631 27.6519 10.217 28.7166C11.7006 30.0213 13.2881 31.1617 14.7145 31.9809C15.4275 32.3904 16.1116 32.7261 16.7311 32.9616C17.338 33.1922 17.9373 33.3478 18.4636 33.3478C18.9899 33.3478 19.5892 33.1922 20.196 32.9616C20.8156 32.7261 21.4997 32.3904 22.2127 31.9809C23.6391 31.1617 25.2266 30.0213 26.7101 28.7166C27.9209 27.6519 29.0769 26.465 30.0243 25.2385H28.0984C25.9158 27.7554 22.8466 30.0432 20.5727 31.1388C20.2375 31.3054 19.9235 31.4444 19.6357 31.5537C19.1013 31.7568 18.7102 31.8372 18.4636 31.8372C18.3893 31.8372 18.3019 31.8299 18.2013 31.8141C16.1878 31.6678 11.5721 28.6655 8.60031 25.2385H6.90288Z" fill="white"/>
<path d="M202.646 7.92969L201.442 7.92969L201.442 6.73284L203.279 6.73284L202.646 7.92969Z" fill="white"/>
<path d="M200.238 7.92969L199.034 7.92969L199.034 6.73284L200.238 6.73284L200.238 7.92969Z" fill="white"/>
<path d="M202.646 10.3062L201.442 10.3062L201.442 9.1093L202.646 9.1093L202.646 10.3062Z" fill="white"/>
<path d="M201.442 9.13574L200.238 9.13574L200.238 7.93889L201.442 7.93889L201.442 9.13574Z" fill="white"/>
</svg>
