<svg width="19" height="13" viewBox="0 0 19 13" fill="none" xmlns="http://www.w3.org/2000/svg">
<path d="M17.047 3.23983C17.0591 3.38201 17.0591 3.52422 17.0591 3.6664C17.0591 8.0031 13.1409 13 5.97972 13C3.77348 13 1.724 12.4617 0 11.5274C0.313464 11.5578 0.614831 11.568 0.940355 11.568C2.76076 11.568 4.43655 11.05 5.77476 10.1664C4.06282 10.1359 2.62817 9.19141 2.13387 7.8914C2.37501 7.92185 2.61611 7.94217 2.86931 7.94217C3.21892 7.94217 3.56856 7.90153 3.89405 7.83047C2.10979 7.52576 0.771544 6.20546 0.771544 4.61093V4.57032C1.28993 4.81407 1.89277 4.96641 2.53169 4.9867C1.48282 4.39763 0.795665 3.39217 0.795665 2.25466C0.795665 1.6453 0.988523 1.08671 1.32611 0.599204C3.243 2.58983 6.12437 3.88981 9.35531 4.03202C9.29504 3.78827 9.25886 3.53438 9.25886 3.28047C9.25886 1.47264 10.9949 0 13.1529 0C14.2741 0 15.2868 0.396093 15.9981 1.03594C16.8782 0.893756 17.7221 0.619524 18.4696 0.243752C18.1802 1.00549 17.5653 1.64533 16.7576 2.05155C17.5413 1.98049 18.3008 1.79764 19 1.54376C18.4696 2.19373 17.8065 2.77262 17.047 3.23983Z" fill="black"/>
</svg>
